<svg height="473pt" viewBox="0 0 473 473.02736" width="473pt" xmlns="http://www.w3.org/2000/svg"><path d="m471.609375 346.441406c-6.847656-25.558594-36.664063-39.847656-66.519531-31.871094-13.539063 3.476563-25.476563 11.492188-33.808594 22.714844l-51.203125-51.160156c23.441406-5.136719 28.417969-12.417969 28.417969-17.640625 0-4.679687-4-11.015625-21.664063-16 17.664063-4.984375 21.664063-11.320313 21.664063-16s-4-11.015625-21.664063-16c17.664063-4.984375 21.664063-11.320313 21.664063-16 0-5.226563-4.976563-12.503906-28.375-17.671875l51.152344-51.128906c18.550781 24.488281 52.117187 31.914062 79.269531 17.542968 10.289062-5.714843 17.863281-15.300781 21.039062-26.632812 3.339844-13.039062.609375-26.890625-7.429687-37.6875-8.355469-11.511719-20.476563-19.738281-34.265625-23.246094-6.664063-1.789062-13.574219-2.492187-20.460938-2.082031.386719-6.902344-.316406-13.828125-2.089843-20.511719-3.507813-13.761718-11.714844-25.863281-23.199219-34.214844-10.785157-8.046874-24.632813-10.777343-37.664063-7.433593-11.339844 3.171875-20.9375 10.75-26.65625 21.042969-7.632812 13.882812-9.492187 30.210937-5.167968 45.453124 3.421874 13.542969 11.421874 25.480469 22.648437 33.792969l-79.039063 79.0625c-6.769531-.183593-13.96875-.285156-21.761718-.285156-7.792969 0-15 .101563-21.769532.285156l-79.03125-79.070312c11.234376-8.328125 19.261719-20.265625 22.746094-33.808594 8-29.832031-6.3125-59.664063-31.875-66.519531-13.015625-3.304688-26.824218-.566406-37.597656 7.449218-11.484375 8.351563-19.691406 20.453126-23.199219 34.214844-1.800781 6.683594-2.511719 13.617188-2.105469 20.527344-6.910156-.402344-13.84375.308594-20.527343 2.105469-13.761719 3.507812-25.863281 11.714843-34.21875 23.199219-8.015625 10.773437-10.75 24.585937-7.445313 37.601562 6.855469 25.597656 36.710938 39.855469 66.519532 31.871094 13.5-3.476563 25.398437-11.472656 33.71875-22.65625l51.199218 51.199218c-23.4375 5.097657-28.414062 12.375-28.414062 17.601563 0 4.679687 4 11.015625 21.664062 16-17.664062 4.984375-21.664062 11.320313-21.664062 16s4 11.015625 21.664062 16c-17.664062 4.984375-21.664062 11.320313-21.664062 16 0 5.222656 4.976562 12.503906 28.375 17.671875l-51.152344 51.128906c-8.296875-11.25-20.234375-19.273437-33.78125-22.707031-15.253906-4.339844-31.597656-2.484375-45.488281 5.160156-10.289063 5.714844-17.863281 15.304688-21.042969 26.632813-3.339844 13.039062-.605469 26.890625 7.433594 37.6875 8.355468 11.515625 20.476562 19.738281 34.265625 23.25 6.664062 1.78125 13.574219 2.484375 20.460937 2.078125-.386718 6.90625.316406 13.828125 2.089844 20.511719 3.515625 13.769531 11.738281 25.871093 23.238281 34.21875 7.773438 5.660156 17.113281 8.765624 26.730469 8.878906 3.691406.003906 7.371094-.484375 10.933594-1.449219 11.339844-3.167969 20.941406-10.746094 26.65625-21.039063 14.363281-27.140624 6.945312-60.691406-17.519532-79.25l79.066407-79.0625c6.765625.183594 13.964843.289063 21.757812.289063s15-.105469 21.769531-.289063l79.007813 79.070313c-11.234375 8.332031-19.261719 20.265625-22.746094 33.808594-8 29.832031 6.3125 59.664062 31.875 66.519531 3.550781.953125 7.214844 1.433594 10.894531 1.433594 9.621094-.113282 18.96875-3.214844 26.742188-8.878906 11.484375-8.355469 19.691406-20.457032 23.203125-34.21875 1.800781-6.683594 2.507813-13.613282 2.101563-20.527344 6.910156.414062 13.84375-.296875 20.527343-2.101563 13.761719-3.511719 25.863281-11.71875 34.21875-23.203125 8.046875-10.777344 10.800781-24.613281 7.496094-37.65625zm-165.402344-74.191406-8.640625-8.636719c9.46875.953125 18.859375 2.582031 28.097656 4.871094-6.40625 1.636719-12.902343 2.894531-19.457031 3.765625zm-66.351562-43.726562 15.671875 15.671874c-6.039063.167969-21.238282.257813-22.398438.246094l-15.671875-15.671875c3.941407-.109375 21.246094-.285156 22.398438-.246093zm30.59375 8 6.703125-6.703126c16.339844.730469 32.578125 2.964844 48.511718 6.664063-15.933593 3.714844-32.175781 5.957031-48.519531 6.703125zm-21.152344-24.191407 15.238281-15.242187c7.761719.335937 14.824219.800781 21.304688 1.351562l-12.976563 13c-7.238281.425782-15.054687.738282-23.566406.890625zm-49.183594-.890625-12.976562-13c6.472656-.550781 13.535156-1.015625 21.289062-1.351562l15.269531 15.242187c-8.511718-.152343-16.320312-.464843-23.558593-.890625zm2.398438 25.042969-6.703125 6.703125c-16.332032-.75-32.558594-2.992188-48.480469-6.703125 15.933594-3.714844 32.175781-5.960937 48.519531-6.703125zm21.183593 24.152344-15.199218 15.238281c-7.761719-.335938-14.824219-.800781-21.304688-1.351562l13-13c7.175782-.425782 14.992188-.734376 23.503906-.886719zm49.183594.886719 13 13c-6.472656.550781-13.535156 1.015624-21.285156 1.351562l-15.296875-15.238281c8.511719.152343 16.320313.460937 23.558594.886719zm52.800782-57.039063c-9.234376 2.289063-18.621094 3.914063-28.085938 4.871094l8.636719-8.640625c6.546875.875 13.035156 2.132812 19.433593 3.769531zm30.398437-98.90625c1.886719-1.886719 2.707031-4.589844 2.191406-7.207031-.519531-2.621094-2.308593-4.804688-4.773437-5.832032-11.832032-5.472656-20.476563-16.101562-23.425782-28.800781-3.234374-11.144531-1.949218-23.121093 3.578126-33.328125 3.5625-6.648437 9.683593-11.554687 16.945312-13.597656 8.445312-2.070312 17.375-.210938 24.292969 5.054688 8.429687 6.1875 14.4375 15.113281 17 25.25 2.128906 7.828124 2.207031 16.074218.234375 23.941406-.722656 2.75.070312 5.675781 2.082031 7.6875 2.007813 2.011718 4.933594 2.800781 7.683594 2.082031 7.855469-1.976563 16.082031-1.898437 23.898437.222656 10.152344 2.5625 19.09375 8.585938 25.285156 17.03125 5.269532 6.929688 7.128907 15.867188 5.058594 24.320313-2.050781 7.253906-6.960937 13.359375-13.601562 16.921875-10.21875 5.527343-22.203125 6.8125-33.359375 3.566406-12.679688-2.957031-23.28125-11.597656-28.742188-23.414063-1.027343-2.464843-3.214843-4.253906-5.832031-4.773437s-5.320312.300781-7.210938 2.1875l-66.679687 66.710937c-6.121094-.738281-13.054687-1.363281-20.800781-1.871093zm-119.582031 90.90625c2.078125 0 3.960937.054687 5.976562.070313l-5.976562 5.976562-5.984375-5.976562c1.984375-.023438 3.902343-.070313 5.984375-.070313zm-130.878906-79.5625c-1.5-1.5-3.535157-2.34375-5.65625-2.34375-.515626 0-1.03125.050781-1.535157.144531-2.613281.511719-4.800781 2.292969-5.832031 4.746094-5.527344 11.800781-16.128906 20.445312-28.800781 23.480469-21.296875 5.703125-42.359375-3.523438-46.921875-20.570313-2.066406-8.445312-.214844-17.371094 5.039062-24.296875 6.195313-8.429687 15.132813-14.4375 25.28125-16.984375 7.824219-2.148437 16.074219-2.226562 23.9375-.230468 2.75.726562 5.683594-.066407 7.695313-2.078126 2.015625-2.011718 2.804687-4.945312 2.078125-7.699218-2-7.863282-1.921875-16.109375.234375-23.933594 2.542969-10.136719 8.539062-19.066406 16.960937-25.257812 6.910156-5.265626 15.828125-7.128907 24.269532-5.070313 17.046874 4.566406 26.273437 25.597656 20.570312 46.917969-3.035156 12.675781-11.679688 23.277344-23.480469 28.800781-2.453125 1.035156-4.226562 3.222656-4.738281 5.835937-.511719 2.613282.3125 5.304688 2.191406 7.1875l76.128906 76.128907c-7.722656.496093-14.65625 1.121093-20.800781 1.871093zm61.167968 83.792969 8.640625 8.640625c-9.472656-.957031-18.859375-2.582031-28.097656-4.871094 6.40625-1.640625 12.902344-2.898437 19.457031-3.769531zm-19.457031 67.769531c9.234375-2.289063 18.621094-3.917969 28.085937-4.871094l-8.636718 8.636719c-6.550782-.875-13.046875-2.132812-19.449219-3.765625zm-30.398437 98.902344c-1.886719 1.886719-2.707032 4.59375-2.191407 7.210937.519531 2.617188 2.308594 4.804688 4.773438 5.828125 11.832031 5.472657 20.476562 16.101563 23.425781 28.800781 3.234375 11.148438 1.949219 23.121094-3.578125 33.328126-3.5625 6.648437-9.683594 11.558593-16.945313 13.601562-8.445312 2.058594-17.371093.203125-24.292968-5.058594-8.429688-6.183594-14.4375-15.113281-17-25.246094-2.128906-7.828124-2.207032-16.074218-.234375-23.945312.722656-2.75-.070313-5.675781-2.082031-7.683594-2.007813-2.011718-4.933594-2.804687-7.683594-2.082031-7.855469 1.972656-16.082032 1.894531-23.898438-.226563-10.160156-2.558593-19.105468-8.582031-25.304687-17.03125-5.265625-6.929687-7.125-15.863281-5.054688-24.320312 2.050781-7.25 6.960938-13.359375 13.601563-16.917969 10.214844-5.535156 22.203125-6.816406 33.359375-3.570312 12.675781 2.960937 23.28125 11.597656 28.742187 23.417969 1.019532 2.472656 3.203125 4.273437 5.824219 4.800781 2.617187.53125 5.328125-.292969 7.203125-2.195313l66.695312-66.695312c6.121094.746094 13.054688 1.371094 20.800782 1.871094zm119.566406-90.902344c-2.082032 0-4-.058594-5.976563-.074219l5.976563-5.976562 5.984375 5.976562c-1.984375.023438-3.90625.074219-5.984375.074219zm214.582031 98.398437c-6.191406 8.433594-15.132813 14.4375-25.277344 16.984376-7.824219 2.152343-16.074219 2.230468-23.9375.230468-2.753906-.722656-5.683593.066406-7.695312 2.082032-2.015625 2.011718-2.804688 4.941406-2.078125 7.695312 2 7.863281 1.921875 16.113281-.234375 23.9375-2.546875 10.144531-8.550781 19.085938-16.984375 25.277344-6.917969 5.25-15.828125 7.113281-24.269532 5.074218-17.050781-4.570312-26.273437-25.601562-20.570312-46.921874 3.035156-12.671876 11.675781-23.273438 23.480469-28.800782 2.453125-1.035156 4.226562-3.222656 4.738281-5.832031.507812-2.613281-.3125-5.308594-2.195312-7.191406l-76.125-76.125c7.714843-.496094 14.648437-1.121094 20.796874-1.875l66.671876 66.679687c1.882812 1.882813 4.578124 2.703125 7.191406 2.195313 2.609375-.511719 4.796875-2.285157 5.835937-4.738281 5.523438-11.800782 16.125-20.445313 28.796875-23.480469 21.273438-5.71875 42.402344 3.519531 46.921875 20.570312 2.042969 8.429688.183594 17.332031-5.066406 24.238281zm0 0"/></svg>