<svg height="480pt" viewBox="0 -112 480.02001 480" width="480pt" xmlns="http://www.w3.org/2000/svg"><path d="m467.660156 191.894531c-2.175781-9.894531-1.671875-20.195312 1.457032-29.832031l10.480468-31.527344c.546875-1.640625.546875-3.414062 0-5.054687l-10.328125-30.839844c-3.253906-9.648437-3.804687-20-1.597656-29.9375l12.15625-54.960937c.710937-3.191407-.59375-6.488282-3.292969-8.335938-2.695312-1.84375-6.246094-1.863281-8.960937-.046875l-90.769531 60.527344c-32-23.246094-80.984376-37.871094-136.796876-37.871094-55.816406 0-104.761718 14.625-136.800781 37.871094l-90.761719-60.527344c-2.714843-1.816406-6.265624-1.796875-8.960937.046875-2.699219 1.847656-4.003906 5.144531-3.292969 8.335938l12.160156 54.9375c2.207032 9.957031 1.652344 20.332031-1.601562 30l-10.320312 30.800781c-.546876 1.640625-.546876 3.414062 0 5.054687l10.449218 31.480469c3.140625 9.644531 3.648438 19.949219 1.480469 29.855469l-12.160156 54.398437c-.730469 3.269531.652343 6.648438 3.464843 8.464844 2.8125 1.820313 6.460938 1.691406 9.140626-.320313l85.511718-64.167968c31.785156 25.464844 82.859375 41.769531 141.691406 41.769531 58.832032 0 109.902344-16.304687 141.6875-41.769531l85.511719 64.167968c2.679688 2.011719 6.328125 2.140626 9.140625.320313 2.8125-1.816406 4.195313-5.195313 3.464844-8.464844zm-117.445312-.246093c-5.71875-42.230469-5.71875-85.035157 0-127.265626 30.589844 16.039063 49.792968 38.601563 49.792968 63.632813s-19.203124 47.589844-49.792968 63.632813zm-54.207032-63.632813c-.210937-27.113281 2.160157-54.183594 7.078126-80.847656 10.914062 2.574219 21.613281 5.992187 32 10.222656-6.847657 46.835937-6.847657 94.414063 0 141.25-10.386719 4.226563-21.085938 7.644531-32 10.222656-4.917969-26.664062-7.289063-53.734375-7.078126-80.847656zm-216 0c0-27.929687 23.847657-52.800781 60.855469-68.9375-6.476562 45.730469-6.476562 92.144531 0 137.875-37.007812-16.136719-60.855469-41.011719-60.855469-68.9375zm72 0c-.117187-25.28125 1.921876-50.523437 6.09375-75.457031 10.875-3.582032 21.996094-6.375 33.273438-8.359375-5.0625 27.648437-7.527344 55.707031-7.367188 83.816406-.160156 28.105469 2.304688 56.167969 7.367188 83.816406-11.277344-1.984375-22.398438-4.777343-33.273438-8.359375-4.171874-24.933594-6.210937-50.179687-6.09375-75.457031zm-131.464843 100.589844 7.4375-33.269531c2.792969-12.714844 2.136719-25.945313-1.902344-38.320313l-9.640625-29 9.464844-28.222656c4.1875-12.425781 4.90625-25.753907 2.078125-38.554688l-7.871094-35.542969 70.402344 46.910157c-16.164063 13.976562-25.769531 34.054687-26.503907 55.410156.496094 19.328125 8.480469 37.707031 22.261719 51.261719zm187.6875-14.34375c-5.6875-28.390625-8.445313-57.292969-8.222657-86.246094-.222656-28.957031 2.535157-57.855469 8.222657-86.25 10.550781-1.167969 21.160156-1.753906 31.777343-1.75 15.882813-.023437 31.742188 1.296875 47.40625 3.945313-5.136718 27.71875-7.617187 55.863281-7.40625 84.054687-.210937 28.191406 2.269532 56.335937 7.40625 84.054687-15.664062 2.648438-31.523437 3.96875-47.40625 3.945313-10.617187.003906-21.226562-.582031-31.777343-1.753906zm243.777343-18.902344 7.429688 33.246094-65.726562-49.328125c13.792968-13.550782 21.789062-31.929688 22.296874-51.261719-.730468-21.347656-10.324218-41.421875-26.472656-55.402344l70.398438-46.910156-7.925782 35.566406c-2.828124 12.78125-2.109374 26.089844 2.070313 38.488281l9.496094 28.257813-9.65625 29.039063c-4.039063 12.371093-4.699219 25.59375-1.910157 38.304687zm0 0"/></svg>