<svg height="480pt" viewBox="-31 0 479 480" width="480pt" xmlns="http://www.w3.org/2000/svg"><path d="m72.5 432h272c4.417969 0 8-3.582031 8-8v-160c0-4.417969-3.582031-8-8-8h-272c-4.417969 0-8 3.582031-8 8v160c0 4.417969 3.582031 8 8 8zm8-160h256v144h-256zm0 0"/><path d="m416.5 168c-.105469-92.738281-75.261719-167.894531-168-168h-80c-92.738281.105469-167.894531 75.261719-168 168 .019531 6.789062 2.929688 13.246094 8 17.761719v30.238281c0 4.417969 3.582031 8 8 8v248c0 4.417969 3.582031 8 8 8h368c4.417969 0 8-3.582031 8-8v-248c4.417969 0 8-3.582031 8-8v-30.238281c5.070312-4.515625 7.980469-10.972657 8-17.761719zm-295.585938-76c-4.257812 2.546875-7.832031 6.101562-10.398437 10.351562l-16.136719-10.664062 6.066406-1.238281c2.09375-.433594 3.929688-1.6875 5.09375-3.480469l7.472657-11.496094 13.816406-.800781c2.121094-.125 4.109375-1.089844 5.519531-2.679687l4-4.480469 1.214844 20.59375c-5.808594-.328125-11.585938 1.027343-16.648438 3.894531zm8 13.832031c2.25-1.257812 4.792969-1.890625 7.371094-1.832031 1.875.023438 3.742188.292969 5.550782.800781.503906.136719 1.015624.351563 1.527343.519531 10.882813 4.417969 19.867188 12.511719 25.394531 22.871094 10.621094 18.519532 10.292969 39.570313-.722656 45.960938-3.984375 2.046875-8.617187 2.4375-12.886718 1.085937-11.601563-4.132812-21.222657-12.488281-26.9375-23.398437-10.605469-18.535156-10.277344-39.582032.738281-45.976563zm59.011719 69.183594c.277344.328125.582031.632813.863281.953125h-1.273437c.183594-.265625.289063-.617188.441406-.921875zm4.574219-31.015625c0-17.671875 14.328125-32 32-32s32 14.328125 32 32-14.328125 32-32 32-32-14.328125-32-32zm76.847656 16.953125c3.929688 5.652344 8.640625 10.71875 13.992188 15.046875h-23.160156c3.957031-4.410156 7.066406-9.511719 9.167968-15.046875zm3.152344-40.953125c0-30.929688 25.070312-56 56-56s56 25.070312 56 56-25.070312 56-56 56c-30.910156-.039062-55.960938-25.089844-56-56zm125.230469 19.542969c1.816406 9.378906 2.746093 18.90625 2.769531 28.457031 0 4.417969-3.582031 8-8 8h-18.839844c11.597656-9.371094 20.007813-22.109375 24.070313-36.457031zm-229.230469-123.542969h80c34.621094-.019531 68.199219 11.839844 95.128906 33.601562-19.398437-4.210937-39.671875-.199218-56.007812 11.074219-16.332032 11.277344-27.269532 28.8125-30.210938 48.445313-10.699218-10.164063-25.488281-14.820313-40.082031-12.621094-14.589844 2.203125-27.351563 11.011719-34.582031 23.875l-.09375-.199219c-6.628906-11.964843-16.679688-21.675781-28.863282-27.886719l-2.664062-45.042968c-.207031-3.222656-2.332031-6.003906-5.386719-7.054688-3.050781-1.050781-6.4375-.160156-8.582031 2.257813l-14.59375 16.472656-14.535156.855469c-2.535156.148437-4.847656 1.492187-6.230469 3.621094l-7.855469 12.082031-21.6875 4.441406c-3.171875.644531-5.640625 3.140625-6.253906 6.316406s.746094 6.410157 3.445312 8.195313l35.621094 23.535156c-1.574218 14.582031 1.6875 29.277344 9.28125 41.824219 3.410156 5.9375 7.605469 11.390625 12.472656 16.207031h-15.664062l-8.121094-50.078125c-.503906-3.046875-2.710937-5.527344-5.675781-6.382813-2.964844-.855468-6.15625.070313-8.203125 2.382813l-14.59375 16.476563-14.535156.847656c-2.53125.152344-4.84375 1.492187-6.230469 3.617187l-7.855469 12.082031-21.6875 4.453126c-3.171875.652343-5.636718 3.148437-6.25 6.324218-.609375 3.175782.75 6.40625 3.449219 8.1875l3.199219 2.121094h-.152344c-4.417969 0-8-3.582031-8-8 .074219-83.921875 68.078125-151.9375 152-152.03125zm-114.800781 160-7.335938-4.839844 6.066407-1.25c2.089843-.425781 3.925781-1.671875 5.09375-3.460937l7.472656-11.496094 13.816406-.800781c2.121094-.125 4.109375-1.089844 5.519531-2.679688l5.601563-6.328125 5.007812 30.855469zm330.800781 288h-352v-240h352zm8-256h-368v-16h368zm0 0"/><path d="m328.5 72c-26.507812 0-48 21.492188-48 48s21.492188 48 48 48 48-21.492188 48-48c-.027344-26.5-21.5-47.972656-48-48zm0 80c-17.671875 0-32-14.328125-32-32s14.328125-32 32-32 32 14.328125 32 32-14.328125 32-32 32zm0 0"/><path d="m328.5 96c-13.253906 0-24 10.746094-24 24s10.746094 24 24 24 24-10.746094 24-24-10.746094-24-24-24zm0 32c-4.417969 0-8-3.582031-8-8s3.582031-8 8-8 8 3.582031 8 8-3.582031 8-8 8zm0 0"/><path d="m224.5 120c-13.253906 0-24 10.746094-24 24s10.746094 24 24 24 24-10.746094 24-24-10.746094-24-24-24zm0 32c-4.417969 0-8-3.582031-8-8s3.582031-8 8-8 8 3.582031 8 8-3.582031 8-8 8zm0 0"/><path d="m120.5 304h16c4.417969 0 8-3.582031 8-8s-3.582031-8-8-8h-16c-4.417969 0-8 3.582031-8 8s3.582031 8 8 8zm0 0"/><path d="m304.5 288h-144c-4.417969 0-8 3.582031-8 8s3.582031 8 8 8h144c4.417969 0 8-3.582031 8-8s-3.582031-8-8-8zm0 0"/><path d="m304.5 336h-184c-4.417969 0-8 3.582031-8 8s3.582031 8 8 8h184c4.417969 0 8-3.582031 8-8s-3.582031-8-8-8zm0 0"/><path d="m256.5 384h-136c-4.417969 0-8 3.582031-8 8s3.582031 8 8 8h136c4.417969 0 8-3.582031 8-8s-3.582031-8-8-8zm0 0"/><path d="m304.5 384h-24c-4.417969 0-8 3.582031-8 8s3.582031 8 8 8h24c4.417969 0 8-3.582031 8-8s-3.582031-8-8-8zm0 0"/></svg>