<svg height="488pt" viewBox="0 0 488.94058 488" width="488pt" xmlns="http://www.w3.org/2000/svg"><path d="m486.597656 239.246094-49.71875-49.699219c-10.539062-10.480469-16.445312-24.742187-16.410156-39.605469v-73.039062c0-4.421875-3.582031-8-8-8h-73.039062c-14.859376.039062-29.117188-5.863282-39.597657-16.394532l-49.707031-49.695312c-3.121094-3.121094-8.1875-3.121094-11.3125 0l-49.703125 49.6875c-10.476563 10.535156-24.734375 16.441406-39.589844 16.402344h-73.050781c-4.417969 0-8 3.578125-8 8v73.03125c.039062 14.863281-5.867188 29.125-16.40625 39.605468l-49.71875 49.707032c-3.125 3.121094-3.125 8.1875 0 11.308594l49.71875 49.699218c10.539062 10.480469 16.445312 24.742188 16.40625 39.605469v73.042969c0 4.417968 3.582031 8 8 8h73.042969c14.855469-.042969 29.113281 5.859375 39.597656 16.390625l49.703125 49.695312c3.125 3.125 8.191406 3.125 11.3125 0l49.707031-49.6875c10.476563-10.535156 24.734375-16.441406 39.589844-16.398437h73.046875c4.417969 0 8-3.582032 8-8v-73.035156c-.035156-14.863282 5.871094-29.125 16.410156-39.605469l49.71875-49.707031c3.125-3.121094 3.125-8.1875 0-11.308594zm-61.03125-38.402344 36.054688 36.058594h-33.949219l-30.792969-30.792969c-10.542968-10.480469-16.449218-24.746094-16.410156-39.609375v-46.289062l24-24v53.730468c-.058594 19.121094 7.539062 37.472656 21.097656 50.960938zm-61.097656 152.746094-32-32v-18.183594c-.039062-14.859375 5.867188-29.117188 16.402344-39.59375l10.910156-10.910156h45.265625l-19.480469 19.476562c-13.550781 13.476563-21.148437 31.8125-21.097656 50.921875zm-240-217.378906 32 32v18.1875c.042969 14.855468-5.863281 29.113281-16.398438 39.589843l-10.910156 10.914063h-45.265625l19.480469-19.480469c13.550781-13.472656 21.148438-31.8125 21.09375-50.921875zm128 16c13.441406 13.300781 31.597656 20.742187 50.503906 20.691406h2.1875l-52.691406 52.6875zm-16 73.378906-52.6875-52.6875h2.183594c18.910156.050781 37.066406-7.390625 50.503906-20.691406zm-64-39.203125v-2.183594l52.691406 52.699219h-73.378906c13.300781-13.441406 20.738281-31.597656 20.6875-50.503906zm52.691406 66.515625-52.691406 52.6875v-2.183594c.050781-18.910156-7.386719-37.066406-20.6875-50.503906zm11.308594 11.308594v73.378906c-13.4375-13.300782-31.59375-20.738282-50.503906-20.6875h-2.183594zm16 0 52.691406 52.691406h-2.1875c-18.90625-.050782-37.0625 7.386718-50.503906 20.6875zm64 39.203124v2.183594l-52.6875-52.695312h73.378906c-13.300781 13.4375-20.742187 31.59375-20.691406 50.503906zm-52.6875-66.511718 52.6875-52.691406v2.1875c-.050781 18.90625 7.390625 37.0625 20.691406 50.503906zm57.378906-80h-18.1875c-14.855468.039062-29.113281-5.867188-39.589844-16.402344l-10.914062-10.910156v-45.25l19.488281 19.480468c13.476563 13.546876 31.808594 21.136719 50.914063 21.082032h30.296875zm-84.691406-27.3125-10.910156 10.910156c-10.476563 10.535156-24.734375 16.441406-39.59375 16.402344h-18.183594l-32-32h30.289062c19.101563.050781 37.433594-7.539063 50.902344-21.082032l19.496094-19.480468zm-107.308594 123.3125 10.910156 10.910156c10.535157 10.476562 16.441407 24.734375 16.398438 39.59375v18.183594l-32 32v-30.289063c.054688-19.109375-7.542969-37.441406-21.09375-50.914062l-19.480469-19.484375zm38.621094 80h18.183594c14.859375-.042969 29.117187 5.863281 39.59375 16.398437l10.910156 10.910157v45.25l-19.488281-19.480469c-13.472657-13.542969-31.804688-21.136719-50.910157-21.078125h-30.289062zm84.6875 27.308594 10.914062-10.910157c10.476563-10.535156 24.734376-16.441406 39.589844-16.398437h18.1875l32 32h-30.289062c-19.101563-.054688-37.433594 7.535156-50.90625 21.078125l-19.496094 19.480469zm107.3125-123.308594-10.910156-10.914063c-10.535156-10.476562-16.441406-24.734375-16.402344-39.589843v-18.1875l32-32v30.289062c-.050781 19.109375 7.546875 37.441406 21.097656 50.914062l19.480469 19.488282zm-20.351562-152h53.730468l-24 24h-46.289062c-14.855469.039062-29.113282-5.863282-39.59375-16.394532l-30.808594-30.808593v-33.917969l36.050781 36.039062c13.476563 13.542969 31.804688 21.132813 50.910157 21.082032zm-139.007813-21.089844 36.046875-36.03125v33.917969l-30.796875 30.792969c-10.480469 10.539062-24.738281 16.445312-39.601563 16.410156h-46.289062l-24-24h53.738281c19.101563.050781 37.433594-7.542969 50.902344-21.089844zm-137.046875 137.039062c13.550781-13.472656 21.148438-31.808593 21.09375-50.917968v-53.722656l24 24v46.289062c.039062 14.863281-5.867188 29.121094-16.40625 39.601562l-30.792969 30.800782h-33.953125zm0 88.089844-36.058594-36.039062h33.953125l30.792969 30.789062c10.539062 10.480469 16.449219 24.746094 16.40625 39.609375v46.296875l-24 24v-53.738281c.050781-19.109375-7.546875-37.445313-21.09375-50.917969zm86.136719 115.960938h-53.730469l24-24h46.289062c14.855469-.042969 29.113282 5.859375 39.59375 16.390625l30.804688 30.808593v33.917969l-36.046875-36.039062c-13.476563-13.542969-31.808594-21.132813-50.910156-21.078125zm139.007812 21.085937-36.050781 36.03125v-33.917969l30.800781-30.792968c10.480469-10.539063 24.738281-16.445313 39.601563-16.40625h46.296875l24 24h-53.746094c-19.101563-.054688-37.433594 7.539062-50.902344 21.085937zm137.046875-137.039062c-13.550781 13.472656-21.148437 31.808593-21.097656 50.917969v53.722656l-24-24v-46.289063c-.039062-14.863281 5.871094-29.121093 16.410156-39.601562l30.792969-30.796875h33.949219zm0 0"/></svg>