<svg height="480pt" viewBox="-64 0 480 480" width="480pt" xmlns="http://www.w3.org/2000/svg"><path d="m351.496094 133.183594-48-128c-1.171875-3.121094-4.160156-5.18750025-7.496094-5.183594h-240c-3.335938-.00390625-6.320312 2.0625-7.496094 5.183594l-48 128c-.5546872 1.492187-.652344 3.117187-.289062 4.664062l80 336c.859375 3.605469 4.078125 6.152344 7.785156 6.152344h176c3.707031 0 6.929688-2.546875 7.785156-6.152344l80-336c.363282-1.546875.265625-3.171875-.289062-4.664062zm-93.816406 330.816406h-163.359376l-77.976562-327.480469 45.199219-120.519531h228.914062l45.199219 120.519531zm0 0"/><path d="m273.824219 32h-195.648438c-3.335937-.003906-6.320312 2.0625-7.496093 5.183594l-36.800782 98.097656c-.558594 1.488281-.65625 3.113281-.285156 4.664062l71.886719 301.902344c.855469 3.613282 4.085937 6.160156 7.800781 6.152344h125.4375c3.707031 0 6.929688-2.546875 7.785156-6.152344l71.894532-301.902344c.371093-1.550781.273437-3.175781-.285157-4.664062l-36.800781-98.097656c-1.171875-3.117188-4.15625-5.183594-7.488281-5.183594zm-41.425781 400h-112.796876l-69.867187-293.382812 33.984375-90.617188h184.5625l33.984375 90.617188zm0 0"/><path d="m82.273438 143 25.597656-68.183594c1.074218-2.695312.605468-5.757812-1.222656-8.007812-1.828126-2.25-4.730469-3.335938-7.585938-2.835938s-5.21875 2.507813-6.175781 5.242188l-25.597657 68.191406c-1.433593 4.109375.675782 8.609375 4.75 10.132812 4.078126 1.523438 8.621094-.488281 10.234376-4.53125zm0 0"/><path d="m129.191406 368.703125c4.28125-1.023437 6.929688-5.3125 5.929688-9.597656l-45.703125-191.984375c-1.023438-4.300782-5.339844-6.957032-9.636719-5.933594-4.300781 1.023438-6.957031 5.335938-5.933594 9.636719l45.710938 191.953125c.859375 3.597656 4.078125 6.140625 7.777344 6.144531.625-.003906 1.246093-.074219 1.855468-.21875zm0 0"/><path d="m142.792969 391.265625c-1.023438-4.300781-5.335938-6.957031-9.636719-5.933594-4.300781 1.023438-6.953125 5.335938-5.933594 9.636719l3.546875 14.878906c.855469 3.605469 4.070313 6.148438 7.773438 6.152344.625 0 1.25-.074219 1.855469-.214844 4.285156-1.023437 6.9375-5.3125 5.9375-9.601562zm0 0"/><path d="m240 144h-56v-40c0-4.417969-3.582031-8-8-8s-8 3.582031-8 8v40h-56c-4.417969 0-8 3.582031-8 8s3.582031 8 8 8h56v216c0 4.417969 3.582031 8 8 8s8-3.582031 8-8v-216h56c4.417969 0 8-3.582031 8-8s-3.582031-8-8-8zm0 0"/></svg>