<svg height="480pt" viewBox="0 -16 480 480" width="480pt" xmlns="http://www.w3.org/2000/svg"><path d="m415.199219 71.101562c-.101563-.128906-.128907-.289062-.238281-.414062-.28125-.257812-.578126-.492188-.898438-.699219-87.765625-84.042969-223.007812-93.480469-321.597656-22.445312-.207032.152343-.425782.277343-.625.453125-57.015625 40.59375-91.15625 106.023437-91.839844 176.007812 0 123.515625 107.664062 224 240 224s240-100.484375 240-224c-.289062-57.578125-23.628906-112.648437-64.800781-152.902344zm-175.199219 360.902344c-123.511719 0-224-93.308594-224-208 .5625-61.933594 29.523438-120.179687 78.566406-158.007812 1.460938 1.863281 3.210938 3.484375 5.175782 4.800781 2.878906 1.683594 5.996093 2.90625 9.25 3.625 1.332031.320313 2.644531.707031 3.9375 1.160156-.105469.671875-.257813 1.332031-.449219 1.984375-1.414063 4.230469-1.433594 8.804688-.046875 13.046875 2.039062 5.335938 6.011718 9.710938 11.125 12.257813 2.816406 1.71875 4.320312 2.703125 5.234375 4.621094 1.136719 3.277343.996093 6.859374-.394531 10.035156-.933594 2.726562-.328126 5.742187 1.585937 7.898437s4.835937 3.117188 7.65625 2.515625c2.816406-.601562 5.09375-2.675781 5.960937-5.421875 2.773438-7.082031 2.628907-14.976562-.402343-21.953125-2.5-4.867187-6.449219-8.835937-11.304688-11.359375-3.03125-1.855469-3.910156-2.539062-4.34375-3.785156-.320312-.9375-.207031-1.601563.371094-3.734375 1.566406-4.417969 1.246094-9.285156-.882813-13.457031-3.058593-5-8.164062-8.398438-13.960937-9.289063-1.644531-.339844-3.238281-.894531-4.742187-1.648437-.292969-.269531-.558594-.5625-.800782-.878907 89.839844-60.574218 209.347656-52.367187 290.066406 19.917969-2.097656 2.695313-3.800781 5.675781-5.058593 8.851563-.710938 1.910156-1.269531 3.925781-1.808594 5.910156-.453125 1.863281-1.003906 3.703125-1.644531 5.511719-.773438-.089844-1.535156-.242188-2.28125-.457031-4.546875-1.453126-9.457032-1.277344-13.886719.488281-4.863281 2.339843-8.878906 6.132812-11.488281 10.855469-2.507813 3.671874-4.398438 7.722656-5.601563 12-.28125.867187-.640625 2.042968-.664062 2.1875-.398438.316406-2.855469.75-8.511719-1.210938-4.117188-1.265625-8.496094.953125-9.910156 5.019531-1.414063 4.070313.648437 8.527344 4.660156 10.085938 3.90625 1.472656 8.03125 2.285156 12.203125 2.398437 4.082031.113282 8.078125-1.160156 11.34375-3.613281 3.101563-2.597656 5.265625-6.140625 6.152344-10.089844.742187-2.765625 1.945312-5.386719 3.566406-7.75 2.191406-3.257812 3.144531-4.539062 4.457031-5.097656.871094-.359375 1.542969-.257813 3.855469.304687 3.980469 1.304688 8.285156 1.191407 12.191406-.320312 6.050781-3.285156 10.152344-9.28125 11.015625-16.113281.394532-1.488281.800782-3 1.296875-4.335938.472657-1.058593 1.039063-2.074219 1.695313-3.03125 34.960937 36.707031 54.570312 85.386719 54.816406 136.078125 0 114.691406-100.488281 208-224 208zm0 0"/><path d="m352 208.003906c0-52.933594-50.238281-96-112-96s-112 43.066406-112 96c0 50.699219 46.113281 92.234375 104.257812 95.664063 2.542969.21875 5.125.335937 7.742188.335937s5.199219-.117187 7.742188-.335937c58.144531-3.429688 104.257812-44.964844 104.257812-95.664063zm-168 40c0-22.054687 25.128906-40 56-40s56 17.945313 56 40c0 20.554688-21.824219 37.515625-49.777344 39.738282-2.0625.113281-4.117187.261718-6.222656.261718s-4.160156-.148437-6.222656-.261718c-27.953125-2.222657-49.777344-19.183594-49.777344-39.738282zm125.199219 15.3125c1.828125-4.898437 2.777343-10.082031 2.800781-15.3125 0-30.878906-32.296875-56-72-56s-72 25.121094-72 56c.023438 5.230469.972656 10.414063 2.800781 15.3125-16.597656-13.625-26.390625-33.839844-26.800781-55.3125 0-44.109375 43.0625-80 96-80s96 35.890625 96 80c-.410156 21.472656-10.203125 41.6875-26.800781 55.3125zm0 0"/><path d="m142.96875 280.070312c-9.054688.054688-17.433594 4.777344-22.167969 12.496094-1.621093 3.640625-1.984375 7.714844-1.023437 11.582032.484375 2.253906.589844 4.570312.3125 6.855468-1.074219 8.488282-3.496094 9.777344-3.570313 9.832032-.3125-.039063-1.597656-.300782-2.398437-.519532-4.402344-1.574218-9.242188-1.414062-13.527344.449219-4.898438 2.296875-11.050781 8.046875-12.554688 22.398437-.886718 10.898438 2.640626 21.691407 9.792969 29.960938 2.824219 3.402344 7.871094 3.871094 11.273438 1.046875 3.402343-2.820313 3.871093-7.867187 1.046875-11.269531-4.339844-4.980469-6.566406-11.460938-6.207032-18.054688.878907-8.296875 3.421876-9.601562 3.503907-9.601562.820312.070312 1.625.246094 2.398437.527344 4.449219 1.59375 9.339844 1.386718 13.640625-.566407 7.667969-4.773437 12.347657-13.144531 12.398438-22.175781.480469-3.847656.339843-7.746094-.414063-11.546875-.121094-.796875-.304687-1.804687-.304687-2.007813.390625-.796874 2.953125-2.613281 9.816406-3.511718 4.382813-.570313 7.472656-4.585938 6.902344-8.96875-.570313-4.382813-4.582031-7.472656-8.964844-6.902344zm0 0"/><path d="m385.03125 352.070312c-6.863281-.898437-9.421875-2.6875-9.792969-3.375.058594-.691406.15625-1.378906.296875-2.058593.832032-3.882813.957032-7.878907.375-11.808594-.96875-8.003906-4.753906-15.402344-10.679687-20.871094-3.726563-3.15625-8.230469-5.265625-13.046875-6.101562l-.726563-.160157c.070313-.328124.152344-.679687.230469-.976562 1.421875-4.433594 1.351562-9.214844-.207031-13.601562-2.253907-5.445313-6.488281-9.832032-11.847657-12.28125-2.546874-1.300782-5.597656-1.144532-8 .410156-2.398437 1.558594-3.785156 4.277344-3.632812 7.136718.148438 2.855469 1.816406 5.417969 4.367188 6.710938 1.761718.742188 3.222656 2.050781 4.152343 3.71875.351563.921875.191407 1.785156-.359375 4-1.449218 4.242188-1.160156 8.882812.800782 12.914062 2.484374 4.285157 6.847656 7.140626 11.765624 7.703126 2.222657.277343 4.316407 1.167968 6.058594 2.574218 3.007813 2.988282 4.890625 6.921875 5.328125 11.136719.308594 2.195313.214844 4.425781-.28125 6.585937-1.019531 3.890626-.675781 8.011719.976563 11.679688 4.734375 7.71875 13.125 12.441406 22.183594 12.488281.332031.058594.667968.097657 1.007812.109375 4.222656.007813 7.726562-3.269531 7.996094-7.484375.273437-4.214843-2.78125-7.917969-6.972656-8.449219zm0 0"/></svg>