<svg height="480pt" viewBox="-4 0 480 480.00081" width="480pt" xmlns="http://www.w3.org/2000/svg"><path d="m304 360h-128c-4.417969 0-8 3.582031-8 8v48c0 4.417969 3.582031 8 8 8h128c4.417969 0 8-3.582031 8-8v-48c0-4.417969-3.582031-8-8-8zm-8 48h-112v-32h112zm0 0"/><path d="m224 384h32v16h-32zm0 0"/><path d="m470.945312 439.519531c-1.828124-33.011719-7.105468-65.746093-15.746093-97.664062-7.847657-31.707031-23.058594-61.117188-44.390625-85.855469-3.035156-3.539062-5.585938-7.464844-7.585938-11.679688l-40.078125-82.398437c-11.300781-21.199219-11.300781-46.632813 0-67.832031l43.917969-82.320313c1.328125-2.480469 1.25-5.476562-.195312-7.886719-1.449219-2.410156-4.054688-3.882812-6.867188-3.882812h-48c-65.804688-.167969-128.941406 25.996094-175.335938 72.664062-42.78125 40.835938-68.578124 96.308594-72.238281 155.335938-.421875 5.53125-2.800781 10.726562-6.714843 14.65625-26.375 29.222656-48.273438 62.191406-64.972657 97.839844-15.425781 30.925781-25.695312 64.164062-30.402343 98.402344-1.554688 10.964843-2.335938 22.027343-2.335938 33.101562 0 4.417969 3.582031 8 8 8h456c4.417969 0 8-3.582031 8-8 0-11.519531-.34375-22.167969-1.054688-32.480469zm-15.59375 8.480469c.265626 5.183594.441407 10.527344.519532 16h-439.589844c.191406-5.386719.578125-10.71875 1.160156-16zm-295.351562-96h160v80h-160zm281.257812 0c6.695313 26.230469 11.042969 53 13 80h-118.257812v-80zm-332.050781-98.183594c6.566407-6.671875 10.539063-15.464844 11.203125-24.800781 3.460938-55.125 27.601563-106.914063 67.589844-145.015625 43.394531-43.65625 102.445312-68.140625 164-68h34.664062l-37.648437 70.5625c-13.78125 25.800781-13.832031 56.765625-.136719 82.613281l39.921875 82.160157c2.628907 5.488281 5.972657 10.597656 9.953125 15.199218 17.503906 20.167969 30.480469 43.855469 38.046875 69.464844h-383.847656c14.917969-29.832031 33.84375-57.480469 56.253906-82.183594zm-64.191406 98.183594h98.984375v80h-124.449219c4.75-27.714844 13.320313-54.636719 25.464844-80zm0 0"/><path d="m171.558594 294.65625c2.386718 1.589844 5.4375 1.78125 8 .503906l28.441406-14.214844 28.425781 14.253907c2.25 1.125 4.898438 1.125 7.152344 0l28.421875-14.253907 28.425781 14.253907c2.5625 1.277343 5.613281 1.085937 8-.503907l24-16c3.675781-2.449218 4.667969-7.417968 2.214844-11.09375-2.453125-3.675781-7.421875-4.667968-11.097656-2.214843l-20.132813 13.421875-27.832031-14.007813c-2.253906-1.125-4.902344-1.125-7.152344 0l-28.425781 14.257813-28.421875-14.257813c-2.253906-1.125-4.902344-1.125-7.152344 0l-27.847656 13.929688-20.136719-13.425781c-3.675781-2.453126-8.644531-1.460938-11.097656 2.214843s-1.460938 8.644531 2.214844 11.097657zm0 0"/><path d="m192 224c17.648438 0 32-17.941406 32-40 0-22.054688-14.351562-40-32-40s-32 17.945312-32 40c0 22.058594 14.351562 40 32 40zm0-64c8.671875 0 16 10.992188 16 24s-7.328125 24-16 24-16-10.992188-16-24 7.328125-24 16-24zm0 0"/><path d="m288 224c17.648438 0 32-17.941406 32-40 0-22.054688-14.351562-40-32-40s-32 17.945312-32 40c0 22.058594 14.351562 40 32 40zm0-64c8.671875 0 16 10.992188 16 24s-7.328125 24-16 24-16-10.992188-16-24 7.328125-24 16-24zm0 0"/></svg>