<svg height="480pt" viewBox="0 0 480 480" width="480pt" xmlns="http://www.w3.org/2000/svg"><path d="m472 464h-136.519531l-11.417969-171.554688 89.601562-89.597656c1.496094-1.5 2.335938-3.53125 2.335938-5.648437v-37.199219c0-.585938-.0625-1.167969-.191406-1.738281l-16-72c-.8125-3.660157-4.058594-6.261719-7.808594-6.261719h-64c-2.425781 0-4.722656 1.101562-6.238281 2.992188-1.519531 1.894531-2.097657 4.375-1.570313 6.742187l15.808594 71.136719v6.613281l-31.566406 31.570313-31.488282-63.054688 62.253907-124.425781c1.320312-2.640625 1.078125-5.789063-.628907-8.199219-1.703124-2.40625-4.59375-3.679688-7.523437-3.3125l-128 16c-.183594 0-.351563.113281-.535156.144531-.183594.03125-.238281 0-.367188 0l-65.601562 16c-3.15625.769531-5.535157 3.375-6.015625 6.589844l-4 26.402344-38.296875 15.320312c-2.296875.921875-4.042969 2.855469-4.71875 5.238281l-16 56c-.4375 1.546876-.402344 3.191407.105469 4.71875l47.34375 142.089844-28.5625 154.359375-1.75 21.074219h-72.648438c-4.417969 0-8 3.578125-8 8 0 4.417969 3.582031 8 8 8h464c4.417969 0 8-3.582031 8-8 0-4.421875-3.582031-8-8-8zm-375.3125 0 1.601562-18.945312 28.800782-155.601563c.25-1.332031.15625-2.710937-.273438-4l-47.199218-141.648437 14.246093-49.855469 23.9375-9.597657-5.703125 50.71875c0 .160157.046875.304688 0 .464844-.058594.546875-.058594 1.097656 0 1.648438l11.199219 72.160156c.121094.867188.394531 1.707031.800781 2.488281l.796875 1.527344c1.617188 3.078125 5.039063 4.757813 8.464844 4.160156h2.175781c14.589844-.035156 29.109375 2.027344 43.113282 6.117188.167968.058593.335937.105469.511718.144531 11.050782 3.300781 21.371094 8.683594 30.398438 15.855469 2.179687 1.886719 5.207031 2.453125 7.921875 1.484375 2.714843-.964844 4.699219-3.320313 5.195312-6.160156.492188-2.839844-.578125-5.726563-2.804687-7.554688-10.765625-8.628906-23.101563-15.09375-36.328125-19.03125l-.632813-.175781c-14.488281-4.320313-29.519531-6.5625-44.636718-6.664063l-10.175782-65.535156 13.414063-89.507812 47.015625-11.460938-28.214844 98.773438c-.332031 1.140624-.398438 2.335937-.199219 3.503906l6.726563 40.503906c.726562 4.359375 4.847656 7.304688 9.207031 6.578125s7.304687-4.851563 6.578125-9.207031l-6.402344-38.714844 30.015625-105.191406 45.296875-5.679688-42.96875 107.433594c-.328125.882812-.5 1.816406-.503906 2.757812-.015625.265626-.015625.535157 0 .800782-.015625.246094-.015625.496094 0 .746094l9.28125 55.679687c.640625 3.851563 3.972656 6.679687 7.878906 6.6875.445313 0 .890625-.035156 1.328125-.113281 4.351563-.730469 7.292969-4.847656 6.570313-9.199219l-8.914063-53.472656 37.472657-93.566407 8-20 44.480468-5.5625-57.359375 114.632813c-1.125 2.25-1.125 4.902344 0 7.152344l38.238281 76.566406c.375.738281.867188 1.410156 1.449219 1.992187l.054688.082032c.074219.078125.175781.101562.257812.175781.605469.554687 1.292969 1.007813 2.039063 1.351563.222656.113281.453125.210937.6875.296874.847656.324219 1.742187.5 2.648437.519532h.0625c1.132813-.035156 2.242188-.308594 3.257813-.800782.089844 0 .191406 0 .28125-.0625.355468-.242187.691406-.511718 1.007812-.800781.375-.210937.734375-.453125 1.070313-.71875l41.761719-41.761719c1.503906-1.484374 2.359374-3.503906 2.382812-5.617187v-10.796875c0-.585938-.0625-1.167969-.191406-1.738281l-13.832032-62.261719h47.625l14.398438 64.871094v33.015625l-89.816406 89.816406c-.0625.0625-.078125.152344-.144532.214844-.375.449219-.699218.9375-.96875 1.457031-.257812.375-.488281.769531-.6875 1.183594-.125.4375-.210937.882812-.253906 1.335937-.144531.566407-.222656 1.148438-.234375 1.734375 0 .089844-.039062.167969-.039062.257813l11.59375 174.113281zm0 0"/><path d="m275.425781 385.070312-6.921875-4 8-13.855468c1.453125-2.476563 1.464844-5.542969.035156-8.03125-1.429687-2.488282-4.082031-4.023438-6.953124-4.015625-2.871094.007812-5.519532 1.550781-6.9375 4.046875l-8 13.855468-6.929688-4 8-13.855468c1.453125-2.476563 1.464844-5.542969.035156-8.03125-1.429687-2.488282-4.082031-4.023438-6.953125-4.015625-2.871093.007812-5.519531 1.550781-6.9375 4.046875l-8 13.855468-6.925781-4 8-13.855468c1.449219-2.476563 1.464844-5.542969.035156-8.03125-1.429687-2.488282-4.085937-4.023438-6.957031-4.015625-2.871094.007812-5.515625 1.550781-6.9375 4.046875l-8 13.855468-6.925781-4 8-13.855468c2.171875-3.824219.855468-8.683594-2.953125-10.882813-3.808594-2.199219-8.679688-.910156-10.902344 2.882813l-8 13.855468-6.929687-4 8-13.855468c2.210937-3.828125.898437-8.722656-2.929688-10.933594-3.828125-2.207031-8.722656-.894531-10.933594 2.933594l-8 13.855468-6.929687-4c-3.820313-2.171874-8.679688-.855468-10.878907 2.953126-2.199218 3.808593-.914062 8.679687 2.878907 10.902343l6.921875 4-8 13.855469c-2.210938 3.828125-.898438 8.722656 2.933594 10.933594 3.828124 2.207031 8.722656.894531 10.929687-2.933594l8-13.855469 6.929687 4-8 13.855469c-1.453124 2.476562-1.464843 5.542969-.035156 8.03125 1.429688 2.488281 4.082032 4.023438 6.953125 4.015625 2.871094-.007813 5.519531-1.550781 6.9375-4.046875l8-13.855469 6.925781 4-8 13.855469c-1.449218 2.476562-1.464843 5.542969-.035156 8.03125 1.429688 2.488281 4.085938 4.023438 6.957032 4.015625 2.871093-.007813 5.515624-1.550781 6.9375-4.046875l8-13.855469 6.925781 4-8 13.855469c-1.453125 2.476562-1.464844 5.542969-.035157 8.03125 1.429688 2.488281 4.082032 4.023438 6.953126 4.015625 2.871093-.007813 5.519531-1.550781 6.9375-4.046875l8-13.855469 6.929687 4-8 13.855469c-1.453125 2.476562-1.464844 5.542969-.035156 8.03125 1.429687 2.488281 4.082031 4.023438 6.953125 4.015625s5.519531-1.550781 6.9375-4.046875l8-13.855469 6.929687 4c2.476563 1.453125 5.539063 1.464844 8.027344.035157 2.492187-1.429688 4.023437-4.082032 4.015625-6.953126-.003906-2.871093-1.550781-5.519531-4.042969-6.9375zm0 0"/></svg>