<svg height="480pt" viewBox="0 0 480 480.02" width="480pt" xmlns="http://www.w3.org/2000/svg"><path d="m476.960938 145.882812c5.898437-17.070312 3.144531-35.941406-7.378907-50.621093-10.523437-14.679688-27.511719-23.34375-45.570312-23.242188h-.554688c-2.820312-21.777343-18.328125-39.789062-39.445312-45.816406-15.28125-4.371094-31.691407-2.175781-45.28125 6.066406-8.253907-17.585937-25.019531-29.640625-44.3125-31.867187-19.296875-2.226563-38.367188 5.695312-50.40625 20.9375-10.832031-13.742188-27.460938-21.632813-44.957031-21.3320315-17.492188.3046875-33.839844 8.7656255-44.1875 22.8749995-8.21875-4.546874-17.464844-6.910156-26.855469-6.863281-28.75.035157-52.8125 21.800781-55.722657 50.402344-21.296874-6.457031-44.398437.308594-58.84375 17.238281-14.445312 16.929688-17.496093 40.804688-7.769531 60.824219-3.34375.988281-5.644531 4.050781-5.6640622 7.535156v96c-.0117188 15.921875 1.6250002 31.800781 4.8867192 47.382813 22.714843 107.382812 117.351562 184.3125 227.113281 184.617187h16c128.070312-.140625 231.855469-103.929687 232-232v-96c-.027344-2.402343-1.148438-4.664062-3.050781-6.136719zm-420.949219-65.863281c7.1875-.019531 14.246093 1.929688 20.40625 5.640625 2.6875 1.613282 6.066406 1.511719 8.648437-.261718 2.582032-1.773438 3.894532-4.890626 3.351563-7.976563-.292969-1.785156-.429688-3.59375-.40625-5.402344.023437-22.078125 17.917969-39.972656 40-40 8.820312-.0625 17.398437 2.882813 24.316406 8.351563 1.875 1.480468 4.3125 2.050781 6.644531 1.546875 2.335938-.5 4.324219-2.019531 5.421875-4.136719 7.042969-13.769531 21.390625-22.242188 36.847657-21.761719 15.457031.476563 29.253906 9.824219 35.433593 24 1.269531 2.921875 4.148438 4.808594 7.335938 4.808594 3.183593 0 6.0625-1.886719 7.335937-4.808594 6.925782-15.828125 23.234375-25.417969 40.433594-23.78125s31.402344 14.132813 35.222656 30.980469c.621094 2.839844 2.738282 5.117188 5.523438 5.949219s5.804687.085937 7.882812-1.949219c11.609375-11.273438 28.878906-14.40625 43.710938-7.933594 14.828125 6.476563 24.269531 21.277344 23.890625 37.453125 0 2.378907 1.058593 4.632813 2.886719 6.152344 1.839843 1.511719 4.25 2.140625 6.589843 1.714844 2.152344-.394531 4.335938-.589844 6.523438-.585938 22.078125.027344 39.972656 17.921875 40 40 .015625 5.511719-1.136719 10.96875-3.386719 16h-436.335938c-5.328124-6.867187-8.238281-15.304687-8.277343-24 .023437-22.078125 17.917969-39.972656 40-40zm-30.867188 230.167969 15.152344 8.753906-7.3125 12.671875c-2.996094-6.996093-5.613281-14.148437-7.839844-21.425781zm438.867188-62.167969c-.132813 119.238281-96.761719 215.867188-216 216h-16c-86.007813-.304687-163.707031-51.40625-198.058594-130.253906l12.199219 7.039063 8-13.855469 6.929687 4-8 13.855469 13.855469 8 8-13.855469 6.929688 4-8 13.855469 13.855468 8 8-13.847657 12.917969 7.464844-5.992187 10.398437 13.859374 8 6-10.398437 7.820313 4.519531 8-13.855468-7.828125-4.523438 10.007812-17.34375-13.859374-8-10.007813 17.328125-12.917969-7.460937 8-13.867188-13.855468-8-8 13.867188-6.921876-4 8-13.867188-13.855468-8-8 13.855469-6.929688-4 8-13.855469-13.855468-8-8 13.855469-28.375-16.367188c-2.59375-13.40625-3.90625-27.03125-3.917969-40.6875v-88h448zm0 0"/><path d="m80.617188 251.085938c1.238281 2.988281 4.15625 4.933593 7.394531 4.933593h96c3.234375 0 6.148437-1.949219 7.386719-4.9375 1.238281-2.988281.554687-6.429687-1.730469-8.71875l-10.347657-10.34375 10.347657-10.34375c2.285156-2.289062 2.96875-5.726562 1.730469-8.71875-1.238282-2.988281-4.152344-4.9375-7.386719-4.9375h-96c-3.238281 0-6.152344 1.949219-7.390625 4.9375-1.238282 2.992188-.554688 6.429688 1.734375 8.71875l10.34375 10.34375-10.34375 10.34375c-2.289063 2.289063-2.976563 5.730469-1.738281 8.722657zm29.050781-24.722657-2.347657-2.34375h57.378907l-2.34375 2.34375c-3.125 3.125-3.125 8.1875 0 11.3125l2.34375 2.34375h-57.378907l2.347657-2.34375c3.121093-3.125 3.121093-8.1875 0-11.3125zm0 0"/><path d="m288.617188 251.085938c1.238281 2.988281 4.15625 4.933593 7.394531 4.933593h96c3.234375 0 6.148437-1.949219 7.386719-4.9375 1.238281-2.988281.554687-6.429687-1.730469-8.71875l-10.347657-10.34375 10.347657-10.34375c2.285156-2.289062 2.96875-5.726562 1.730469-8.71875-1.238282-2.988281-4.152344-4.9375-7.386719-4.9375h-96c-3.238281 0-6.152344 1.949219-7.390625 4.9375-1.238282 2.992188-.554688 6.429688 1.734375 8.71875l10.34375 10.34375-10.34375 10.34375c-2.289063 2.289063-2.976563 5.730469-1.738281 8.722657zm29.050781-24.722657-2.347657-2.34375h57.378907l-2.34375 2.34375c-3.125 3.125-3.125 8.1875 0 11.3125l2.34375 2.34375h-57.378907l2.347657-2.34375c3.121093-3.125 3.121093-8.1875 0-11.3125zm0 0"/><path d="m234.355469 402.933594c3.121093 3.121094 8.1875 3.121094 11.3125 0l45.253906-45.257813-11.3125-11.3125-39.597656 39.601563-39.601563-39.601563-11.3125 11.3125zm0 0"/><path d="m96.578125 120.058594c8.660156 5.246094 18.589844 8.011718 28.710937 8 20.945313-.027344 40.136719-11.695313 49.800782-30.277344 1.410156-2.539062 1.335937-5.640625-.195313-8.105469-1.53125-2.46875-4.277343-3.910156-7.179687-3.773437-2.898438.140625-5.496094 1.835937-6.785156 4.4375-6.921876 13.292968-20.652344 21.648437-35.640626 21.679687-7.1875.03125-14.25-1.902343-20.414062-5.597656-3.773438-2.230469-8.636719-1.007813-10.910156 2.738281-2.273438 3.746094-1.109375 8.625 2.613281 10.941406zm0 0"/><path d="m336.875 101.660156c6.160156-3.710937 13.222656-5.660156 20.414062-5.640625 15 .042969 28.730469 8.410157 35.640626 21.71875 1.289062 2.601563 3.886718 4.300781 6.785156 4.4375 2.902344.140625 5.648437-1.304687 7.179687-3.769531s1.605469-5.570312.195313-8.105469c-9.664063-18.582031-28.855469-30.253906-49.800782-30.28125-10.121093-.011719-20.050781 2.757813-28.710937 8-3.722656 2.316407-4.886719 7.195313-2.613281 10.941407 2.273437 3.746093 7.136718 4.96875 10.910156 2.738281zm0 0"/><path d="m256.011719 120.019531c14.503906.078125 28.453125-5.578125 38.804687-15.734375 2.996094-3.121094 2.96875-8.054687-.0625-11.140625-3.027344-3.089843-7.960937-3.210937-11.136718-.277343-7.371094 7.214843-17.292969 11.222656-27.605469 11.152343-15.914063.023438-30.320313-9.40625-36.664063-24-1.769531-4.050781-6.484375-5.902343-10.539062-4.136719-4.050782 1.769532-5.902344 6.484376-4.132813 10.539063 8.882813 20.429687 29.054688 33.632813 51.335938 33.597656zm0 0"/></svg>