<svg height="480pt" viewBox="-40 0 480 480.00012" width="480pt" xmlns="http://www.w3.org/2000/svg"><path d="m400 280c-.761719-44.703125-20.863281-86.878906-55.105469-115.625 9.597657-12.824219 14.886719-28.359375 15.105469-44.375 0-40.046875-34.328125-75.71875-88.480469-93.160156.277344-.921875.4375-1.878906.480469-2.839844 0-22.839844-60-24-72-24s-72 1.160156-72 24c.042969.960938.203125 1.917969.480469 2.839844-54.152344 17.441406-88.480469 53.113281-88.480469 93.160156.21875 16.015625 5.507812 31.550781 15.105469 44.375-34.242188 28.746094-54.34375 70.921875-55.105469 115.625 0 58.214844 35.449219 109.601562 89.144531 139.753906l-24.304687 48.671875c-1.238282 2.480469-1.105469 5.425781.351562 7.78125 1.460938 2.359375 4.035156 3.792969 6.808594 3.792969h256c2.78125.015625 5.367188-1.414062 6.835938-3.773438 1.46875-2.363281 1.605468-5.316406.363281-7.800781l-24.304688-48.671875c53.65625-30.152344 89.105469-81.539062 89.105469-139.753906zm-146.28125-256c-.125.0625-.230469.167969-.351562.230469-17.128907 5.976562-35.246094 8.613281-53.367188 7.769531-18.125.828125-36.242188-1.820312-53.367188-7.808594-.121093-.0625-.234374-.191406-.351562-.191406 17.214844-6.140625 35.460938-8.859375 53.71875-8 18.257812-.859375 36.503906 1.859375 53.71875 8zm-197.71875 96c0-34.847656 33.664062-66.214844 85.960938-80.464844 18.488281 7.898438 49.71875 8.464844 58.039062 8.464844s39.550781-.566406 58.039062-8.464844c52.296876 14.25 85.960938 45.617188 85.960938 80.464844-.167969 12.351562-4.210938 24.335938-11.558594 34.265625-4.210937-3.128906-13.792968-9.496094-14.242187-9.671875-27.902344-17.003906-59.226563-27.617188-91.71875-31.074219l-19.128907-44.671875c-1.261718-2.941406-4.152343-4.84375-7.351562-4.84375s-6.089844 1.902344-7.351562 4.84375l-19.128907 44.671875c-32.507812 3.460938-63.84375 14.082031-91.757812 31.097657-.160157.0625-9.777344 6.351562-14.203125 9.648437-7.347656-9.929687-11.390625-21.914063-11.558594-34.265625zm144 8c28.128906-.085938 56 5.347656 82.03125 16h-164.0625c26.03125-10.652344 53.902344-16.085938 82.03125-16zm-8.496094-15.816406 8.496094-19.855469 8.496094 19.855469c-2.816406-.105469-5.648438-.183594-8.496094-.183594s-5.679688.078125-8.496094.183594zm123.558594 351.816406h-230.125l18.453125-36.960938c61.375 27.949219 131.84375 27.949219 193.21875 0zm-118.605469-225.71875c-.859375-1.085938-1.152343-2.511719-.800781-3.847656l4.34375-17.449219 4.359375 17.449219c.335937 1.339844.035156 2.761718-.816406 3.847656-.855469 1.089844-2.160157 1.722656-3.542969 1.71875-1.386719.019531-2.699219-.621094-3.542969-1.71875zm-12.457031 17.71875h32v175.390625c-5.28125.378906-10.609375.609375-16 .609375s-10.71875-.230469-16-.609375zm112.734375 153.222656h-.070313l-.070312.058594c-20.269531 10.28125-42.09375 17.164062-64.59375 20.367188v-181.648438c0-4.417969-3.582031-8-8-8h-4c.707031-3.113281.667969-6.351562-.105469-9.449219l-12.132812-48.496093c-.894531-3.558594-4.09375-6.054688-7.761719-6.054688s-6.867188 2.496094-7.761719 6.054688l-12.125 48.496093c-.777343 3.097657-.816406 6.335938-.113281 9.449219h-4c-4.417969 0-8 3.582031-8 8v181.648438c-22.5-3.199219-44.320312-10.074219-64.59375-20.351563l-.070312-.058594h-.070313c-52.328125-26.839843-87.265625-74.726562-87.265625-129.238281 0-48.742188 27.945312-92.167969 71.265625-120h225.46875c43.320313 27.832031 71.265625 71.257812 71.265625 120 0 54.511719-34.9375 102.398438-87.265625 129.222656zm0 0"/><path d="m55 211.304688c-14.757812 19.878906-22.8125 43.9375-23 68.695312 0 4.417969 3.582031 8 8 8s8-3.582031 8-8c.195312-21.386719 7.183594-42.15625 19.953125-59.3125 1.769531-2.308594 2.144531-5.398438.984375-8.0625-1.164062-2.667969-3.683594-4.492188-6.582031-4.769531-2.894531-.273438-5.710938 1.046875-7.355469 3.449219zm0 0"/><path d="m52.855469 310.078125c-1.378907-4.195313-5.902344-6.480469-10.097657-5.097656-4.199218 1.378906-6.484374 5.902343-5.101562 10.097656 1.945312 5.882813 4.355469 11.597656 7.199219 17.097656 1.257812 2.628907 3.84375 4.367188 6.75 4.535157 2.910156.171874 5.679687-1.253907 7.234375-3.71875 1.554687-2.460938 1.644531-5.578126.238281-8.128907-2.460937-4.753906-4.539063-9.699219-6.222656-14.785156zm0 0"/></svg>