<svg height="490pt" viewBox="-5 0 490 490.608" width="490pt" xmlns="http://www.w3.org/2000/svg"><path d="m440.453125 391.425781c-.648437-3.878906-.71875-7.832031-.214844-11.730469l3.296875-25.375c1.527344-11.585937-.625-23.363281-6.160156-33.65625l-11.027344-20.59375c-3.941406-7.324218-5.488281-15.699218-4.421875-23.949218l2.761719-21.671875c1.164062-9.144531.066406-18.4375-3.203125-27.058594l-6.949219-18.199219 17.285156-7.199218c12.421876-5.144532 21.421876-16.195313 23.945313-29.398438l22.792969-119.097656c5.585937-11.363282 1.457031-25.113282-9.464844-31.519532l-13.871094-8c-11.503906-6.515624-26.105468-2.597656-32.800781 8.800782-.492187.839844-.828125 1.757812-.992187 2.71875l-17.679688 110.792968c-1.09375 6.746094-5.042969 12.691407-10.832031 16.320313l-.230469-.609375c0-83.949219-68.054688-152-152-152-83.949219 0-152 68.050781-152 152l-.242188.632812c-5.789062-3.625-9.738281-9.570312-10.832031-16.3125l-17.671875-110.824218c-.15625-.976563-.488281-1.917969-.984375-2.777344-6.683593-11.4375-21.332031-15.363281-32.839843-8.796875l-13.863282 8c-10.949218 6.414063-15.070312 20.203125-9.441406 31.574219l22.816406 119.199218c2.53125 13.175782 11.511719 24.203126 23.90625 29.34375l17.320313 7.199219-6.96875 18.105469c-3.292969 8.664062-4.390625 18.007812-3.199219 27.199219l2.796875 21.351562c1.074219 8.214844-.441406 16.5625-4.335937 23.875l-11.261719 21.335938c-5.515625 10.34375-7.621094 22.167969-6.007813 33.78125l3.300782 24.296875c.546874 3.988281.484374 8.03125-.183594 12l-34.328125 58.578125c-5.007813 8.554687-4.242188 19.3125 1.933593 27.070312 6.175782 7.761719 16.484376 10.921875 25.949219 7.960938l53.6875-16.800781c6.035157-1.480469 12.332031-1.546876 18.398438-.191407l49.304687 11.144531c8.039063 1.792969 16.371094 1.8125 24.417969.054688l50.949219-11.246094c6.074218-1.328125 12.371094-1.234375 18.402344.269532l43.796874 11.039062c6.707032 1.691406 13.667969 2.121094 20.53125 1.273438l50.78125-6.246094c2.816407-.347656 5.664063-.390625 8.488282-.128906l78.578125 16.136718c1.636719.339844 3.308593.507813 4.984375.511719 8.582031-.050781 16.484375-4.679687 20.726562-12.140625 4.238282-7.464844 4.171875-16.621094-.175781-24.019531zm-20.910156-252.59375 17.40625-109.054687c2.480469-3.089844 6.832031-3.9375 10.289062-2l13.816407 8c1.867187 1.058594 3.230468 2.828125 3.78125 4.902344.550781 2.078124.242187 4.289062-.855469 6.136718-.4375.765625-.746094 1.601563-.910157 2.472656l-23.03125 120.253907c-1.503906 7.929687-6.894531 14.574219-14.34375 17.679687l-16.890624 7.007813-10.054688-26.335938c11.148438-5.839843 18.863281-16.625 20.792969-29.0625zm-363.898438 48.382813c-7.417969-3.09375-12.789062-9.703125-14.304687-17.597656l-23.054688-120.34375c-.164062-.871094-.472656-1.707032-.910156-2.472657-1.09375-1.84375-1.402344-4.046875-.855469-6.121093.542969-2.070313 1.898438-3.839844 3.757813-4.902344l13.808594-8c3.460937-1.960938 7.828124-1.125 10.320312 1.976562l17.421875 109.085938c1.929687 12.441406 9.648437 23.226562 20.800781 29.0625l-10.054687 26.335937zm407.5625 284c-1.816406 2.601562-5.011719 3.863281-8.113281 3.199218l-78.953125-16.222656c-.269531-.054687-.535156-.09375-.800781-.128906-1.863282-.183594-3.742188-.277344-5.597656-.277344-2.285157 0-4.566407.140625-6.832032.421875l-50.761718 6.25c-4.902344.59375-9.878907.285157-14.671876-.914062l-43.800781-11.039063c-8.441406-2.117187-17.261719-2.25-25.765625-.382812l-50.984375 11.246094c-5.742187 1.261718-11.6875 1.25-17.425781-.039063l-49.320312-11.136719c-8.660157-1.921875-17.648438-1.785156-26.246094.402344l-54.152344 16.902344c-3.15625 1.019531-6.613281-.042969-8.648438-2.664063-2.117187-2.5625-2.375-6.183593-.648437-9.023437l35.007813-59.808594c.445312-.765625.761718-1.597656.9375-2.464844 1.222656-6.105468 1.417968-12.371094.574218-18.542968l-3.300781-24.296876c-1.152344-8.292968.347656-16.738281 4.285156-24.128906l11.296875-21.308594c5.457032-10.242187 7.578125-21.933593 6.0625-33.441406l-2.773437-21.382812c-.84375-6.5625-.054688-13.234375 2.296875-19.417969l29.292968-76.703125c.34375-.898438.519532-1.855469.523438-2.816406 0-75.109375 60.886719-136 136-136 75.109375 0 136 60.890625 136 136-.003906.972656.171875 1.9375.519531 2.847656l29.3125 76.753906c2.339844 6.15625 3.132813 12.792969 2.308594 19.328125l-2.773437 21.671875c-1.492188 11.546875.671874 23.269532 6.183593 33.527344l11.023438 20.589844c3.949219 7.339844 5.496093 15.734375 4.414062 24l-3.292969 25.378906c-.796874 6.058594-.589843 12.210938.613282 18.207031.179687.867188.5 1.703125.945312 2.472657l37.664063 64.230468c1.652343 2.726563 1.492187 6.179688-.398438 8.742188zm0 0"/><path d="m24.6875 257.496094c13.253906 0 24-10.746094 24-24s-10.746094-24-24-24c-13.257812 0-24 10.746094-24 24s10.742188 24 24 24zm0-32c4.417969 0 8 3.582031 8 8 0 4.417968-3.582031 8-8 8-4.421875 0-8-3.582032-8-8 0-4.417969 3.578125-8 8-8zm0 0"/><path d="m24.6875 313.496094c13.253906 0 24-10.746094 24-24s-10.746094-24-24-24c-13.257812 0-24 10.746094-24 24s10.742188 24 24 24zm0-32c4.417969 0 8 3.582031 8 8 0 4.417968-3.582031 8-8 8-4.421875 0-8-3.582032-8-8 0-4.417969 3.578125-8 8-8zm0 0"/><path d="m456.6875 209.496094c-13.257812 0-24 10.746094-24 24s10.742188 24 24 24c13.253906 0 24-10.746094 24-24s-10.746094-24-24-24zm0 32c-4.421875 0-8-3.582032-8-8 0-4.417969 3.578125-8 8-8 4.417969 0 8 3.582031 8 8 0 4.417968-3.582031 8-8 8zm0 0"/><path d="m456.6875 265.496094c-13.257812 0-24 10.746094-24 24s10.742188 24 24 24c13.253906 0 24-10.746094 24-24s-10.746094-24-24-24zm0 32c-4.421875 0-8-3.582032-8-8 0-4.417969 3.578125-8 8-8 4.417969 0 8 3.582031 8 8 0 4.417968-3.582031 8-8 8zm0 0"/><path d="m240.6875 49.496094c-48.601562 0-88 39.398437-88 88 0 48.601562 39.398438 88 88 88 48.597656 0 88-39.398438 88-88-.058594-48.578125-39.425781-87.941406-88-88zm0 160c-39.765625 0-72-32.234375-72-72s32.234375-72 72-72c39.761719 0 72 32.234375 72 72-.046875 39.746094-32.253906 71.957031-72 72zm0 0"/><path d="m298.773438 240.632812c-6.355469-1.371093-12.945313-1.15625-19.199219.613282-4.515625 1.117187-9.164063 1.59375-13.808594 1.417968-2.804687-.71875-5.480469-1.875-7.929687-3.425781-5.136719-3.335937-11.039063-5.3125-17.148438-5.742187-6.035156.425781-11.851562 2.402344-16.898438 5.734375-2.359374 1.523437-4.941406 2.664062-7.65625 3.378906-4.886718.226563-9.78125-.21875-14.542968-1.328125-6.460938-1.726562-13.242188-1.871094-19.769532-.417969-15.183593 4.363281-26.511718 17.054688-29.132812 32.632813 0 12.40625 15.484375 29.792968 37.695312 34.878906 9.734376 1.542969 19.671876 1.269531 29.3125-.800781 6.933594-1.203125 13.953126-1.898438 20.992188-2.078125 6.972656.175781 13.925781.875 20.796875 2.089844 6.273437 1.121093 12.621094 1.773437 18.992187 1.949218 3.328126.027344 6.652344-.3125 9.90625-1.015625 22.566407-5.078125 38.304688-22.535156 38.304688-35.023437 0-10.070313-11.386719-27.449219-29.914062-32.863282zm-42.085938 50.144532v-9.28125h16v11.472656c-2.800781-.328125-5.699219-.738281-8.800781-1.207031-2.273438-.347657-4.761719-.664063-7.199219-.984375zm32 1.597656v-18.878906c0-4.417969-3.582031-8-8-8h-32c-4.421875 0-8 3.582031-8 8v16c-7.820312.164062-15.617188.90625-23.328125 2.214844-7.683594 1.699218-15.597656 2.0625-23.402344 1.074218-11.085937-1.878906-20.535156-9.09375-25.269531-19.289062 2.78125-8.285156 9.378906-14.722656 17.726562-17.3125 4.113282-.585938 8.300782-.3125 12.304688.800781 6.195312 1.390625 12.554688 1.90625 18.894531 1.527344 4.949219-.800781 9.679688-2.605469 13.90625-5.304688 2.765625-1.851562 5.886719-3.117187 9.167969-3.710937 3.410156.597656 6.664062 1.898437 9.550781 3.816406 4.269531 2.691406 9.039063 4.488281 14.023438 5.28125 6.199219.394531 12.425781-.160156 18.457031-1.648438 3.746094-1.113281 7.679688-1.4375 11.558594-.953124 8.59375 2.53125 15.445312 9.046874 18.410156 17.503906-4.589844 9.714844-13.480469 16.703125-24 18.871094zm0 0"/><path d="m240.6875 105.496094c-17.675781 0-32 14.328125-32 32s14.324219 32 32 32c17.671875 0 32-14.328125 32-32s-14.328125-32-32-32zm0 48c-8.839844 0-16-7.164063-16-16 0-8.835938 7.160156-16 16-16 8.835938 0 16 7.164062 16 16 0 8.835937-7.164062 16-16 16zm0 0"/></svg>