<svg height="479pt" viewBox="-103 0 479 479.99418" width="479pt" xmlns="http://www.w3.org/2000/svg"><path d="m239.128906 191.996094h1.367188c17.945312 0 32-10.539063 32-24-.753906-10.105469-7.757813-18.65625-17.519532-21.378906.953126-6.164063 1.464844-12.386719 1.519532-18.621094-.003906-4.644532-.273438-9.285156-.796875-13.898438-3.871094-35.222656-22.15625-67.265625-50.511719-88.515625-28.355469-21.246093-64.246094-29.796875-99.136719-23.621093-16.359375 2.878906-31.988281 8.964843-45.984375 17.90625-22.8125 14.449218-40.488281 35.722656-50.511718 60.800781-5.578126 13.816406-8.609376 28.527343-8.953126 43.421875-.105468 1.257812-.105468 2.585937-.105468 3.90625.007812 15.113281 2.667968 30.109375 7.855468 44.300781 5.835938 15.707031 14.703126 30.113281 26.097657 42.402344 16.613281 18.171875 38.183593 31.082031 62.046875 37.144531v20.453125c-15.398438 1.152344-30.339844 5.753906-43.71875 13.464844-32.394532 18.476562-52.363282 52.9375-52.28125 90.234375v48c.039062 30.910156 25.089844 55.957031 56 56h144c30.914062-.042969 55.960937-25.089844 56-56v-48c-.078125-44.039063-27.824219-83.269532-69.320313-98.019532-8.59375-3.074218-17.570312-4.957031-26.679687-5.597656v-20.617187c33.199218-8.503907 61.554687-30.054688 78.632812-59.765625zm-94.632812 63.757812-32 8v-8.855468c10.617187 1.460937 21.382812 1.460937 32 0zm22.050781-90.960937c5.460937 3.105469 11.199219 6.121093 17.300781 9.074219-4.300781 4.265624-8.570312 8.371093-12.796875 12.3125-14.347656 14.449218-30.007812 27.527343-46.785156 39.0625-7.246094 4.5-14.894531 8.3125-22.847656 11.390624-15.054688-3.714843-29.152344-10.558593-41.382813-20.085937 1.878906-.191406 3.75-.335937 5.636719-.609375 17.550781-2.902344 34.53125-8.542969 50.328125-16.71875 18.410156-8.996094 35.433594-20.589844 50.546875-34.425781zm-15.648437 72.96875c-6.632813 1.320312-13.367188 2.03125-20.128907 2.121093.65625-.394531 1.34375-.703124 2-1.113281 17.660157-12.054687 34.132813-25.757812 49.199219-40.925781 5.800781-5.402344 11.625-11.074219 17.601562-17.050781 7.390626 2.832031 15.671876 5.304687 23.246094 7.441406-16.222656 25.621094-42.199218 43.507813-71.917968 49.527344zm105.597656-69.765625c0 3.199218-6.398438 8-16 8h-1.4375c-.269532.015625-.535156.015625-.800782 0-2.152343-.617188-4.511718-1.273438-6.984374-1.96875-10.332032-2.648438-20.488282-5.949219-30.398438-9.890625-10.742188-4.734375-21.195312-10.101563-31.296875-16.078125-9.832031-5.691406-19.195313-12.15625-28-19.335938-2.671875-2.144531-5.191406-4.351562-7.65625-6.59375-6.804687-6.300781-13.214844-13.015625-19.199219-20.101562-7.082031-8.257813-13.566406-17.003906-19.410156-26.175782-1.046875-1.730468-2.03125-3.386718-2.992188-5.136718-4.667968-8.367188-8.84375-17.003906-12.496093-25.863282-2.054688-4.855468-3.910157-9.714843-5.726563-14.617187 8.496094-4.773437 17.59375-8.394531 27.046875-10.769531 1.03125 4.875 2.191407 9.746094 3.625 14.714844 3.792969 14.566406 9.410157 28.59375 16.726563 41.75 6.882812 12.265624 15.359375 23.5625 25.210937 33.601562 3.289063 3.304688 6.761719 6.425781 10.398438 9.351562 7.371093 5.925782 15.183593 11.273438 23.375 16 18.214843 10.441407 37.578125 18.742188 57.695312 24.742188 2.179688.40625 4.386719.621094 6.601563.640625 7.007812 1.136719 11.71875 4.90625 11.71875 7.730469zm-234.605469-5.898438c-2.84375-8.949218-4.558594-18.222656-5.105469-27.597656 2.183594.429688 4.238282.839844 5.6875 1.238281 7.558594 1.976563 15.335938 2.976563 23.144532 2.976563 22.261718-.542969 43.84375-7.792969 61.921874-20.800782 4.992188 5.601563 10.148438 10.96875 15.582032 16 1.824218 1.65625 3.679687 3.199219 5.519531 4.800782-22.289063 13.039062-47.113281 21.164062-72.800781 23.824218-11.308594.757813-22.664063.609376-33.949219-.441406zm17.808594-66.152344c15.101562 1.621094 30.316406-1.875 43.199219-9.925781 2.078124 3.199219 6.96875 10.542969 14.261718 19.703125-20.320312 14.746094-45.996094 20.046875-70.496094 14.550782-2.207031-.597657-5.597656-1.269532-9.277343-1.96875l-.304688-.054688c.699219-8.539062 2.414063-16.960938 5.101563-25.097656 5.789062 1.226562 11.632812 2.15625 17.515625 2.792968zm128.796875 8.050782c.113281-8.050782 6.1875-14.765625 14.183594-15.679688 8-.914062 15.433593 4.257813 17.355468 12.078125.304688 1.175781.460938 2.386719.460938 3.601563-.039063 8.0625-6.070313 14.839844-14.078125 15.804687-6.027344-3.589843-11.824219-7.546875-17.359375-11.855469-.359375-1.285156-.546875-2.613281-.5625-3.949218zm46.976562 7.644531c7.933594 3.824219 16.175782 6.96875 24.640625 9.402344.144531 2.320312.382813 4.597656.382813 6.953125-.042969 5.085937-.429688 10.164062-1.160156 15.199218-12.101563-3.820312-23.914063-8.496093-35.351563-14 5.699219-4.390624 9.746094-10.574218 11.488281-17.554687zm22.226563-8.09375c-8.101563-2.773437-15.910157-6.328125-23.320313-10.617187-4.101562-11.296876-14.257812-19.289063-26.203125-20.625-13.9375-13.546876-23.613281-30.878907-27.832031-49.855469-.117188-.640625-.191406-1.214844-.300781-1.839844 38.953125 11.605469 68.632812 43.304687 77.65625 82.9375zm-94.402344-86.449219c.34375 2.71875.800781 5.542969 1.367187 8.496094 3.910157 18.601562 12.53125 35.882812 25.042969 50.191406-7.371093 3.878906-12.933593 10.480469-15.503906 18.402344-7.1875-7.992188-13.472656-16.75-18.746094-26.113281-6.699219-12.054688-11.832031-24.917969-15.273437-38.273438-1.285156-4.445312-2.328125-8.796875-3.253906-13.117187 8.773437-.902344 17.625-.761719 26.367187.414062zm-82.933594 22.097656c1.476563 3.925782 3.054688 7.894532 4.757813 11.886719 2.542968 6.023438 5.671875 13.097657 9.792968 20.976563-10.003906 6.316406-21.824218 9.128906-33.601562 8-3.625-.367188-8.40625-1.082032-13.0625-1.96875 7.625-15.226563 18.605469-28.523438 32.113281-38.894532zm-31.699219 139.429688c4.570313.25 9.203126.386719 13.65625.386719 5.367188 0 10.488282-.183594 14.898438-.570313 30.136719-3.136718 59.148438-13.160156 84.796875-29.296875 3.296875 2.402344 6.691406 4.714844 10.226563 6.984375-13.085938 11.402344-27.609376 21.039063-43.199219 28.664063-14.320313 7.472656-29.726563 12.628906-45.65625 15.28125-6.398438.894531-12.855469 1.292969-19.3125 1.183593-6.039063-6.886718-11.214844-14.488281-15.410157-22.632812zm75.832032 109.371094c4.304687-.027344 7.816406-3.445313 7.953125-7.746094l32.046875-8v7.679688c-15.589844 12.269531-35.316406 18.046874-55.0625 16.136718-4.601563-.566406-9.132813-1.613281-13.511719-3.128906 9.1875-3.214844 18.84375-4.882812 28.574219-4.941406zm-47.367188 14.023437c9.414063 5.203125 19.730469 8.566407 30.402344 9.917969 3.246094.386719 6.519531.578125 9.789062.578125 22.898438-.417969 44.898438-8.984375 62.050782-24.160156 3.886718.273437 7.75.824219 11.558594 1.65625-2.464844 2.832031-5.085938 5.527343-7.847657 8.070312-37.207031 33.953125-92 30.441407-127.570312 23.199219 6.097656-7.566406 13.402343-14.074219 21.617187-19.261719zm183.367188 73.976563v34.765625c-42.296875 3.367187-84.824219 2.464843-126.941406-2.695313-21.273438-2.292968-42.128907-7.496094-61.984376-15.464844-12.179687-5.070312-23.878906-11.226562-34.953124-18.398437.132812-4.992187.6875-9.964844 1.65625-14.863281 6.304687 2.957031 12.800781 5.757812 19.488281 8.199218 27.46875 9.90625 56.464843 14.90625 85.664062 14.773438 39.542969-.511719 78.667969-8.1875 115.472657-22.65625 1.046874 5.386719 1.582031 10.855469 1.597656 16.339844zm-223.375 54.15625c11.773437 6.46875 23.921875 12.230468 36.375 17.257812 14.5625 5.878906 29.601562 11.425782 44.839844 16.585938h-41.839844c-19.65625-.074219-36.347656-14.417969-39.375-33.84375zm183.375 33.84375h-47.4375c-31.792969-8.621094-63.046875-19.113282-93.601563-31.425782-14.816406-6.015624-29.171875-13.097656-42.960937-21.199218v-18.472656c9.304687 5.488281 18.976562 10.328124 28.945312 14.488281 21.140625 8.511719 43.351563 14.074219 66.007813 16.535156 25.765625 3.316406 51.71875 4.941406 77.695312 4.863281 16.578125 0 33.671875-.734375 51.066407-1.941406-1.457032 20.875-18.785157 37.085938-39.714844 37.152344zm33.992187-119.746094c-48.984375 18.871094-119.75 34.214844-191.261719 8.222656-6.980468-2.574218-13.820312-5.511718-20.496093-8.796875 1.089843-2.730469 2.320312-5.402343 3.6875-8 17.6875 4.101563 35.769531 6.25 53.925781 6.398438 31.648438 0 66.402344-7.367188 93.601562-32.183594 4.816407-4.507813 9.234376-9.425781 13.199219-14.695313 21.714844 9.351563 38.769531 27.023438 47.34375 49.054688zm0 0"/></svg>