<svg height="480pt" viewBox="-24 0 480 480.00037" width="480pt" xmlns="http://www.w3.org/2000/svg"><path d="m432.007812 220c.136719-34.511719-7.320312-68.632812-21.839843-99.945312-.082031-.214844-.171875-.425782-.273438-.628907-11.085937-23.785156-26.246093-45.445312-44.800781-64l48.160156-41.320312c2.574219-2.179688 3.503906-5.738281 2.328125-8.894531-1.175781-3.160157-4.207031-5.242188-7.574219-5.210938h-384c-3.445312 0-6.503906 2.203125-7.589843 5.46875-1.089844 3.269531.035156 6.867188 2.789062 8.929688l50.582031 37.921874c-19.242187 19.890626-35.34375 42.597657-47.75 67.335938-14.648437 31.417969-22.171874 65.679688-22.0312495 100.34375-.5781245 78.585938 38.8085935 152.082031 104.5585935 195.128906-.359375 2.945313-.542968 5.90625-.558594 8.871094 0 31.398438 17.597657 56 40 56 16.703126 0 31.199219-14.070312 37.09375-35.039062 23.09375 4.054687 46.714844 4.054687 69.808594 0 5.894532 20.96875 20.390625 35.039062 37.097656 35.039062 22.398438 0 40-24.601562 40-56-.015624-2.96875-.203124-5.933594-.5625-8.878906 65.75-43.042969 105.132813-116.539063 104.5625-195.121094zm-395.203124-94.128906c9.441406-18.867188 21.296874-36.425782 35.273437-52.230469.539063 25.136719 14.171875 48.167969 35.953125 60.734375s48.539062 12.84375 70.574219.730469l30.234375 60.472656c1.351562 2.714844 4.125 4.429687 7.160156 4.429687 3.03125 0 5.804688-1.714843 7.160156-4.429687l30.230469-60.472656c22.132813 12.164062 49.027344 11.832031 70.847656-.882813 21.824219-12.714844 35.378907-35.945312 35.710938-61.199218 14.324219 15.671874 26.195312 33.421874 35.199219 52.648437 3.25 11.152344 4.886718 22.710937 4.859374 34.328125 0 83.816406-82.546874 152-184 152-101.457031 0-184-68.183594-184-152-.027343-11.546875 1.589844-23.035156 4.796876-34.128906zm107.203124-109.871094c30.925782 0 56 25.074219 56 56 0 30.929688-25.074218 56-56 56-30.929687 0-56-25.070312-56-56 .035157-30.914062 25.085938-55.964844 56-56zm144 0c30.925782 0 56 25.074219 56 56 0 30.929688-25.074218 56-56 56-30.929687 0-56-25.070312-56-56 .035157-30.914062 25.085938-55.964844 56-56zm-91.058593 120h38.113281l-19.054688 38.113281zm189.457031-120-32.238281 27.648438c-4.65625-10.785157-11.867188-20.273438-21.007813-27.648438zm-143.550781 0c-15.40625 12.351562-25.035157 30.511719-26.621094 50.195312-1.582031 19.683594 5.023437 39.148438 18.261719 53.804688h-36.976563c13.234375-14.65625 19.839844-34.121094 18.257813-53.804688-1.582032-19.683593-11.210938-37.84375-26.617188-50.195312zm-144 0c-8 6.472656-14.523438 14.574219-19.136719 23.769531l-31.710938-23.769531zm45.152343 448c-12.992187 0-24-18.273438-24-39.917969 14.402344 7.59375 29.660157 13.441407 45.453126 17.40625-4.015626 13.367188-12.40625 22.511719-21.453126 22.511719zm144 0c-9.050781 0-17.441406-9.144531-21.464843-22.511719 15.792969-3.96875 31.058593-9.8125 45.464843-17.40625 0 21.644531-11.007812 39.917969-24 39.917969zm26.648438-59.640625c-60.628906 36.808594-136.703125 36.808594-197.328125 0-63.613281-39.582031-102.007813-109.441406-101.320313-184.359375.007813-11.207031.847657-22.402344 2.511719-33.488281 15.183594 80.082031 97.941407 141.488281 197.488281 141.488281 99.542969 0 182.3125-61.40625 197.488282-141.488281 1.660156 11.085937 2.5 22.28125 2.511718 33.488281.675782 74.921875-37.730468 144.785156-101.351562 184.359375zm0 0"/><path d="m144.007812 112c22.089844 0 40-17.910156 40-40s-17.910156-40-40-40c-22.09375 0-40 17.910156-40 40 .023438 22.082031 17.917969 39.972656 40 40zm0-64c13.253907 0 24 10.746094 24 24s-10.746093 24-24 24c-13.257812 0-24-10.746094-24-24s10.742188-24 24-24zm0 0"/><path d="m288.007812 112c22.089844 0 40-17.910156 40-40s-17.910156-40-40-40c-22.09375 0-40 17.910156-40 40 .023438 22.082031 17.917969 39.972656 40 40zm0-64c13.253907 0 24 10.746094 24 24s-10.746093 24-24 24c-13.257812 0-24-10.746094-24-24s10.742188-24 24-24zm0 0"/></svg>