<svg height="480pt" viewBox="-16 0 479 480" width="480pt" xmlns="http://www.w3.org/2000/svg"><path d="m304.5 232c22.054688 0 40-21.527344 40-48s-17.945312-48-40-48-40 21.527344-40 48 17.945312 48 40 48zm0-80c13.230469 0 24 14.351562 24 32s-10.769531 32-24 32-24-14.351562-24-32 10.769531-32 24-32zm0 0"/><path d="m280.5 344h-96c-22.082031.027344-39.972656 17.917969-40 40v24c.027344 22.082031 17.917969 39.972656 40 40h96c22.082031-.027344 39.972656-17.917969 40-40v-24c-.027344-22.082031-17.917969-39.972656-40-40zm-16 16v16h-16v-16zm-64 0v16h-16v-16zm-16 72v-16h16v16zm80 0v-9.753906l16-4v13.753906zm40-24c-.019531 6.789062-2.929688 13.246094-8 17.761719v-17.761719c0-2.464844-1.136719-4.789062-3.078125-6.308594-1.941406-1.515625-4.476563-2.050781-6.867187-1.453125l-32 8c-3.558594.894531-6.054688 4.09375-6.054688 7.761719v16h-32v-24c0-4.417969-3.582031-8-8-8h-32c-4.417969 0-8 3.582031-8 8v17.761719c-5.070312-4.515625-7.980469-10.972657-8-17.761719v-24c.019531-6.789062 2.929688-13.246094 8-17.761719v17.761719c0 4.417969 3.582031 8 8 8h32c4.417969 0 8-3.582031 8-8v-24h16v24c0 4.417969 3.582031 8 8 8h32c4.417969 0 8-3.582031 8-8v-24c13.253906 0 24 10.746094 24 24zm0 0"/><path d="m96.5 216c-13.253906 0-24 10.746094-24 24s10.746094 24 24 24 24-10.746094 24-24-10.746094-24-24-24zm0 32c-4.417969 0-8-3.582031-8-8s3.582031-8 8-8 8 3.582031 8 8-3.582031 8-8 8zm0 0"/><path d="m448.308594 446.265625-16-72c-.695313-3.128906-3.1875-5.539063-6.335938-6.128906-3.148437-.566407-6.335937.773437-8.128906 3.421875l-15.558594 23.34375-1.785156 1.785156-43.945312-43.945312c44.089843-36.574219 67.945312-69.335938 67.945312-128.742188 0-105.742188-82.113281-224-192-224-59.503906 0-110.816406 34.695312-145.40625 83.28125l-6.59375-6.59375v-44.6875h-16v28.6875l-8-8v-44.6875h-16v28.6875l-8-8v-20.6875h-16v16h-16v16h20.6875l8 8h-28.6875v16h44.6875l8 8h-28.6875v16h44.6875l8.855469 8.863281c-23.863281 38.167969-36.847657 82.128907-37.542969 127.136719 0 61.230469 25.273438 94.144531 72 132.113281v83.886719c.027344 22.082031 17.917969 39.972656 40 40h160c22.082031-.027344 39.972656-17.917969 40-40v-68.6875l36.6875 36.6875-2.023438 2.023438-23.089843 15.3125c-2.675781 1.773437-4.03125 4.972656-3.445313 8.128906.585938 3.15625 3 5.65625 6.136719 6.351562l72 16c.570313.121094 1.152344.183594 1.734375.183594 2.425781 0 4.722656-1.101562 6.238281-2.996094 1.519531-1.890625 2.097657-4.371094 1.570313-6.738281zm-215.808594-430.265625c34.375 1.175781 67.382812 13.746094 93.832031 35.734375-1.800781.144531-3.742187.234375-6 .28125-9.832031-.957031-19.628906 2.171875-27.089843 8.648437-6.027344 6.113282-9.1875 14.492188-8.703126 23.0625.570313 4.492188-.914062 9-4.039062 12.273438-3.257812 3.125-7.765625 4.597656-12.238281 4-8.589844-.523438-16.996094 2.625-23.121094 8.664062-3.132813 3.136719-3.125 8.21875.011719 11.347657 3.136718 3.128906 8.21875 3.125 11.347656-.011719 3.257812-3.125 7.765625-4.597656 12.238281-4 8.589844.566406 17.003907-2.601562 23.089844-8.691406 6.082031-6.085938 9.242187-14.503906 8.671875-23.09375-.554688-4.476563.941406-8.964844 4.070312-12.214844 3.488282-3.511719 8.394532-3.792969 16.097657-3.953125 6.925781.328125 13.835937-.917969 20.214843-3.640625 43.363282 41.75 67.785157 99.402344 67.617188 159.59375 0 56.390625-23.238281 85.34375-69 122.046875l-3 2.402344v7.871093c-6.855469-4.335937-12.75-10.027343-17.320312-16.726562-2.519532-3.84375-4.453126-8.035156-5.742188-12.441406-2.1875-7.359375-5.816406-14.207032-10.679688-20.144532-5.21875-6.476562-11.402343-12.113281-18.335937-16.703124-8.535156-4.769532-14.226563-13.382813-15.257813-23.105469-.582031-5.785157-2.734374-11.300781-6.222656-15.953125-7.191406-8.625-16.648437-15.074219-27.304687-18.613282-9.605469-4.125-19.695313-7.023437-30.023438-8.632812-5.832031-.335938-11.421875-2.460938-16-6.089844-2.558593-1.953125-4.425781-4.675781-5.320312-7.765625-2.089844-5.980469-5.574219-11.378906-10.160157-15.746093-7.238281-7.21875-16.261718-12.378907-26.152343-14.957032-6.6875-2.136718-10.015625-3.351562-12.753907-7.664062-2.152343-3.824219-3.015624-8.234375-2.46875-12.585938.933594-7.523437-1.453124-15.078125-6.539062-20.703125-6.15625-5.699219-14.410156-8.570312-22.773438-7.921875-3.976562.136719-7.941406-.476562-11.6875-1.8125-4.003906-2.050781-7.246093-5.324218-9.257812-9.347656 33.496094-62.910156 94-103.40625 150-103.40625zm80 448h-160c-13.253906 0-24-10.746094-24-24v-91.542969l-3-2.402343c-45.761719-36.710938-69-65.664063-69-122.054688-.03125-30.371094 6.164062-60.425781 18.199219-88.3125 2.984375 3.210938 6.570312 5.800781 10.554687 7.625 5.613282 2.242188 11.625 3.332031 17.671875 3.199219 6.046875.214843 9.316407.441406 11.8125 3.03125 2 2.074219 2.136719 4 2.058594 9.351562-.632813 7.46875 1.097656 14.945313 4.941406 21.378907 5.015625 7.375 12.691407 12.523437 21.417969 14.359374 7.4375 1.820313 14.246094 5.628907 19.6875 11.015626 3.003906 2.777343 5.253906 6.273437 6.535156 10.160156 1.871094 5.625 5.328125 10.585937 9.953125 14.296875 6.695313 5.480469 14.878907 8.824219 23.496094 9.597656 9.136719 1.398437 18.054687 3.964844 26.535156 7.640625 8.027344 2.445312 15.210938 7.085938 20.738281 13.398438 1.949219 2.578124 3.09375 5.671874 3.285157 8.898437 1.691406 14.003906 9.742187 26.445313 21.824219 33.726563 5.699218 3.726562 10.78125 8.3125 15.066406 13.601562 3.691406 4.457031 6.414062 9.632812 8 15.199219 1.722656 5.726562 4.265625 11.171875 7.550781 16.167969 7.773437 11.316406 18.339844 20.429687 30.671875 26.457031v65.207031c0 13.253906-10.746094 24-24 24zm76.097656-35.726562 8.070313-5.363282c.449219-.289062.863281-.628906 1.238281-1.007812l16.25-16.246094c.371094-.375.703125-.78125 1-1.214844l5.601562-8.402344 9.207032 41.425782zm0 0"/></svg>