<svg height="489pt" viewBox="-2 0 489 489.01193" width="489pt" xmlns="http://www.w3.org/2000/svg"><path d="m383.207031 423.683594c-4.648437-3.007813-9.582031-5.558594-14.726562-7.617188l-48.871094-19.453125-7.152344-79.273437c-.222656-2.328125-.25-4.667969-.082031-7l7.050781-84.929688 3.296875.433594c8.484375 1.0625 13 1.746094 14.949219 4.390625.714844 1.117187 1.269531 2.324219 1.648437 3.59375 1.5 4.316406 3.566407 8.414063 6.144532 12.183594 3.6875 5.480469 6.871094 10.207031 13.222656 11.449219 5.226562.640624 10.429688-1.316407 13.9375-5.242188 2.046875-1.824219 3.007812-2.589844 4.246094-2.710938 3.59375-.375 7.859375 4 9.601562 5.71875 3.078125 3.050782 5.082032 7.011719 5.710938 11.296876.140625 5.574218-1.695313 11.019531-5.175782 15.375-1.597656 2.402343-5.800781 8.859374-.191406 13.847656 4.800782 4.265625 11.089844 1.121094 13.761719-.230469 11.71875-5.863281 33.382813-23.144531 31.527344-46.609375-1.214844-15.445312-11.847657-24.671875-26.769531-37.597656-8.925782-7.710938-15.328126-10.625-22-9.9375-4.394532.53125-8.535157 2.351562-11.894532 5.234375-.976562-3.742188-2.703125-7.25-5.074218-10.304688-7.910157-9.898437-20.671876-10.5625-29.757813-11.03125-4-.242187-9.648437-.632812-16.480469-1.441406v-23.023437c41.648438 8.214843 54.511719 3.648437 61.503906-1.855469 3.46875-2.976563 7.617188-5.046875 12.078126-6.023438 2.625-.519531 5.320312-.554687 7.953124-.105469 2.457032.367188 4.949219.4375 7.425782.207032 14.109375-1.726563 21.191406-17.136719 26.871094-29.519532 1.121093-2.398437 2.207031-4.800781 3.265624-6.902343 3.085938-5.96875 5.695313-12.171875 7.796876-18.554688 1.90625 2.273438 3.441406 4.410157 4.761718 6.25 3.199219 4.40625 8 11.085938 15.390625 8 3.128907-1.378906 5.445313-4.125 6.273438-7.441406 2.847656-9.253906-.738281-29.375-10.601563-44.542969-3.019531-4.726562-6.671875-9.015625-10.855468-12.753906-.828126-6.054688-2.285157-12.003906-4.34375-17.757812-5.273438-14.625-13.960938-31.640626-25.160157-29.265626-8.925781 1.816407-10.121093 11.199219-10.34375 25.671876-3.933593-6.523438-9.25-12.105469-15.574219-16.351563-8.355468-6.941406-19.132812-10.269531-29.945312-9.246094-6.121094 1.253907-11.605469 4.613281-15.503906 9.496094-2.488282 3.125-5.820313 5.476563-9.601563 6.773437-6.589843 1.625-13.488281 1.53125-20.03125-.269531-3.679687-.578125-7.242187-1.730469-10.566406-3.410156-4.15625-2.0625-8.558594-3.585937-13.097656-4.535156-11.652344-2.445313-23.6875-2.445313-35.34375 0-3.804688.824219-7.535157 1.960937-11.152344 3.398437-3 1.082032-7.199219 2.601563-13.824219 4.875l-4.941406 1.695313c-9.050781 3.09375-14.152344 4.847656-18.699219 6.183593-17.804687 4.496094-36.042969 7.082032-54.398437 7.71875-7.277344 1.070313-14.671875 1.097657-21.960938.089844-7.679687-1.574218-15.140625-4.078125-22.214844-7.457031-5.167968-2.28125-8.417968-4-11.199218-5.519531-1.601563-.800782-3-1.601563-4.472656-2.328125-9.964844-4.730469-20.867188-7.160157-31.894532-7.113281-5.257812-.335938-11.203125-.710938-18.59375-1.664063-10.480468-1.339844-20.824218-3.578125-30.921875-6.695313-6.109375-1.84765575-13.710937-4.085937-17.277343 3.046876-1.601563 3.753906-1.09375 8.074218 1.335937 11.351562 8.289063 13.875 47.375 47.019531 85.597656 48.226562h1.472657c9.273437-.320312 18.445312 2.007813 26.441406 6.710938 4.070312 2.695312 7.621094 6.097656 10.488281 10.046875 1.3125 1.601563 2.589844 3.203125 4 4.671875 8.097656 8.25 18.488281 13.878906 29.824219 16.152344v24.632812c-5.886719.167969-11.75.816406-17.527344 1.945313-4.992188.996093-9.90625 2.332031-14.714844 4-5.398437 1.941406-11.003906 3.253906-16.703125 3.910156-5.1875.695313-10.441406.714844-15.632812.058594-5.410157-.710938-10.894531-.730469-16.3125-.066407-16.160157 1.460938-31.535157 7.640626-44.207031 17.777344-13.914063 11.398438-23.402344 27.3125-26.816407 44.976563-6.550781 43.421875 35.671875 79.101562 47.328125 86.285156 3.722656 3.183594 9.027344 3.730469 13.320313 1.371094 6.167969-4.539063 2.535156-11.160157.136719-15.539063-5.855469-10.300781-10.265626-21.359375-13.113282-32.863281-3.847656-15.3125-5.824218-25.253906-.800781-34.136719 3.507813-6.207031 10.746094-12.574218 16.304687-11.949218.800782.070312.960938.117187 2.832032 1.503906 3.355468 2.605468 7.121094 4.644531 11.136718 6.03125 13.335938 4.902344 24.273438 4.503906 31.679688-1.199219 3.714844-3.015625 6.199219-7.28125 6.984375-12 .28125-1.878906 1.039063-3.65625 2.199219-5.160156 3.59375-4.242188 11.121094-4.710938 18.480468-5.191407 4.808594-.339843 9.636719-.136718 14.402344.597657l-6.402344 57.226562c-.414062 3.820313-.605468 7.660157-.574218 11.503907v63.710937c0 3.128906.167968 6.230469.429687 9.414063l6.992188 77.3125-39.039063 10.402343c-10.8125 2.835938-20.976562 7.726563-29.945312 14.398438l-87.65625 65.335937 92.714844-11.648437 28.863281 7.304687c2.246093.605469 4.609375.621094 6.863281.039063l28.800781-7.238281 28.527344 7.199218c2.222656.613282 4.570313.625 6.800781.039063l28.550782-7.246094 29.265624 7.414063 33.3125.402343c2.183594-.023437 4.335938-.53125 6.300782-1.488281l27.136718-13.601562 20.289063 10.121093c3.824219 1.941407 8.339844 1.964844 12.183594.0625 3.84375-1.902343 6.566406-5.503906 7.34375-9.71875l125.863281 21.023438zm40.992188-396.984375c1.671875 3.34375 3.144531 6.78125 4.410156 10.296875.214844.566406.335937 1.191406.527344 1.769531-1.648438-.386719-3.199219-.664063-4.574219-.875l-.472656-.078125c0-1.023438 0-2.128906 0-3.113281.039062-2.574219.054687-5.351563.109375-8zm-75.308594 427.839843c-2.128906 1.8125-3.648437 4.230469-4.363281 6.929688l-18.359375-9.113281c-3.871094-1.941407-8.433594-1.941407-12.304688 0l-27.742187 13.855469h-28.746094l-.949219-.101563-29.136719-7.335937c-2.203124-.578126-4.515624-.578126-6.71875 0l-28.511718 7.199218-28.523438-7.199218c-2.214844-.613282-4.558594-.628907-6.78125-.042969l-28.800781 7.203125-31.382813-7.914063-35.28125 4.410157 38.726563-28.722657c7.34375-5.441406 15.664063-9.429687 24.503906-11.742187l52.128907-13.816406-8.191407-90.289063c-.214843-2.65625-.367187-5.3125-.367187-8v-62.398437c-.015625-3.234376.15625-6.464844.511718-9.679688l8-71.570312-6.914062-1.597657c-8.535156-2.152343-17.351562-2.960937-26.132812-2.402343-10.949219-.710938-21.691407 3.214843-29.601563 10.816406-2.789063 3.375-4.6875 7.398437-5.519531 11.695312-.632813 2.585938-.800782 2.753906-1.242188 3.128906-1.976562 1.511719-7.429687 2.113282-16.460937-1.199218-2.554688-.867188-4.9375-2.171875-7.050781-3.847656-3.054688-2.582032-6.824219-4.175782-10.808594-4.570313-13.34375-1.414063-25.804688 9.441406-31.765625 20-8.542969 15.082031-4.601563 30.746094-.800781 45.875 1 4 2.089843 7.710937 3.199218 11.117187-11.519531-13.34375-22.519531-32.152343-19.550781-51.855468 2.875-13.738282 10.347656-26.089844 21.183594-35.015625 10.296875-8.140625 22.753906-13.089844 35.832031-14.230469 4.269531-.519531 8.585938-.492188 12.847656.078125 6.378906.78125 12.828125.753906 19.199219-.078125 6.765625-.777344 13.417969-2.324219 19.832031-4.609375 11.195313-3.945313 23.050782-5.679687 34.90625-5.105469l8.320313.335938v-54.4375l-6.792969-1.039063c-10.269531-.980469-19.90625-5.390625-27.359375-12.523437-1.121094-1.191406-2.136719-2.46875-3.199219-3.78125-3.949218-5.308594-8.804687-9.875-14.335937-13.496094-10.46875-6.335938-22.523438-9.546875-34.753907-9.257812h-1.296874c-22.695313-.71875-46.175782-15.480469-60.144532-27.40625 5.210938 1.183593 11.449219 2.359374 18.867188 3.328124 7.902344 1.03125 14.148437 1.421876 19.652344 1.773438 8.929687-.164062 17.773437 1.710938 25.867187 5.480469 1.328125.648437 2.597656 1.335937 4 2.082031 3.046875 1.597656 6.621094 3.550781 12.328125 6.0625 8.210938 3.886719 16.867188 6.757812 25.773438 8.542969 8.855468 1.289062 17.847656 1.304687 26.707031.050781 19.234375-.675781 38.335937-3.441406 56.972656-8.25 4.746094-1.398438 10.035156-3.199219 19.402344-6.398438l4.941406-1.695312c6.707031-2.304688 11.019531-3.847656 14.058594-4.945312 2.867187-1.167969 5.832031-2.09375 8.855469-2.769532 9.496093-1.988281 19.300781-1.988281 28.800781 0 3.382812.6875 6.660156 1.824219 9.742187 3.378906 4.578125 2.273438 9.46875 3.847657 14.511719 4.664063 9.179687 2.402344 18.832031 2.308594 27.960937-.273437 6.292969-2.125 11.882813-5.929688 16.167969-11 2.816407-2.992188 4.070313-4.222657 6.777344-4.726563 6.648437-.023437 13.078125 2.386719 18.078125 6.773437 4.222656 2.761719 7.777344 6.429688 10.402344 10.738282 3.449218 5.714844 8.363281 10.410156 14.230468 13.597656 1.4375.789062 2.921876 1.488281 4.449219 2.089844l.199219.09375.296875.136718c2.902344 1.074219 5.925781 1.808594 9 2.183594 3.488281.328125 6.847656 1.476563 9.804687 3.351563 1.273438.789062 2.5 1.648437 3.671876 2.578125 3.855468 3.0625 7.15625 6.761718 9.753906 10.945312 3.007812 4.691406 5.316406 9.796875 6.847656 15.160156-2.570312-2.746093-5.351562-5.289062-8.3125-7.609374l-.175781-.136719c-1.039063-.855469-2.085938-1.679688-3.03125-2.3125-6.070313-4.449219-13.042969-7.511719-20.425781-8.976563-1.292969-.3125-2.636719-.640625-4.183594-1.054687l-.304688-.089844c-5.574218-1.53125-10.957031-3.699219-16.039062-6.460937-4.902344-2.5625-9.640625-5.433594-14.183594-8.59375-6.050781-4.972657-13.53125-7.882813-21.351562-8.3125-8.253907.089843-16.328126 2.398437-23.382813 6.679687l-4.328125 2.128906c-9.871094 4.742188-20.136719 8.613281-30.679688 11.578125l-5.824218 1.644532v63.144531l6.597656 1.175781c5.699219 1.007812 11.46875 1.558594 17.257812 1.648438 17.171876-.226563 34.214844-3.050782 50.542969-8.375 9.03125-1.816407 17.777344-4.832032 26.007813-8.96875 9.933594-7.15625 16.832031-17.769532 19.34375-29.75 3.542968.929687 6.902344 2.449218 9.9375 4.496093-2.089844 7.964844-5.058594 15.675781-8.855469 22.984375-1.183594 2.335938-2.359375 4.871094-3.5625 7.46875-3.804687 8.265625-9.023437 19.570313-14.261719 20.203125-1.214844.070313-2.433594 0-3.632812-.210937-4.304688-.628906-8.6875-.523438-12.960938.304687-7.148437 1.527344-13.804687 4.808594-19.375 9.542969-2.089844 1.648438-12.433594 6.21875-57.351562-3.664062l-9.6875-2.140626v56.636719l6.855468.992188c10.519532 1.511719 19.113282 2.136719 25.449219 2.503906 6.335938.371094 14.039063.730469 17.460938 4.984375 1.347656 2.003906 2.273437 4.261719 2.714843 6.632812.15625 5.484376 3.757813 10.273438 8.984376 11.945313 5.226562 1.675781 10.941406-.132813 14.253906-4.503906 1.367187-1.492188 3.128906-2.558594 5.082031-3.082031 1.804687-.222657 5.300781 2.066406 10.175781 6.257812 14.132813 12.199219 20.398438 17.953125 21.070313 26.398438.101562 7.226562-2.753907 14.179687-7.902344 19.25.0625-1.601563.003906-3.207032-.175781-4.800782-1.085938-7.890625-4.742188-15.199218-10.402344-20.800781-5.597656-6.539063-13.792969-10.28125-22.398438-10.230469-5.0625.667969-9.746093 3.019532-13.304687 6.679688-.191406.167968-.410156.367187-.632813.550781-.800781-1.070313-1.855468-2.609375-2.640624-3.757813-1.851563-2.691406-3.324219-5.617187-4.382813-8.707031-.871094-2.726562-2.15625-5.300781-3.808594-7.640625-6.101562-8.222656-15.199219-9.375-25.800781-10.703125l-20.597656-2.792969v9.632813l-7.648438 91.863281c-.257812 3.234375-.230468 6.484375.078125 9.714844l8.050781 88.6875 58.015626 23.015625c4.191406 1.671875 8.207031 3.746094 12 6.191406l35.933593 22.800781-50.527343-8.417968c-3.980469-.625-8.039063.523437-11.101563 3.136718zm59.597656-375.808593c-1.558593 8.273437-6.117187 15.679687-12.800781 20.800781-7.023438 2.953125-14.292969 5.28125-21.726562 6.953125-14.722657 4.964844-30.140626 7.566406-45.679688 7.703125-2.839844-.046875-5.519531-.199219-8.152344-.480469v-37.457031c9.394532-2.9375 18.558594-6.558594 27.425782-10.839844l4.484374-2.199218c4.738282-3.003907 10.175782-4.726563 15.777344-5 4.765625.417968 9.261719 2.386718 12.800782 5.601562 5.058593 3.519531 10.335937 6.710938 15.800781 9.558594 3.90625 2.035156 7.941406 3.824218 12.070312 5.359375zm0 0"/><path d="m200.089844 178.210938c-4.417969 0-8 3.582031-8 8v144c0 4.417968 3.582031 8 8 8 4.417968 0 8-3.582032 8-8v-144c0-4.417969-3.582032-8-8-8zm0 0"/><path d="m200.089844 346.210938c-4.417969 0-8 3.582031-8 8v16c0 4.417968 3.582031 8 8 8 4.417968 0 8-3.582032 8-8v-16c0-4.417969-3.582032-8-8-8zm0 0"/></svg>