<svg height="477pt" viewBox="-57 0 477 477.27829" width="477pt" xmlns="http://www.w3.org/2000/svg"><path d="m360.351562 47.621094-45.277343-45.277344c-3.125-3.125-8.1875-3.125-11.3125 0l-45.28125 45.277344c-2.285157 2.289062-2.96875 5.730468-1.734375 8.71875 1.238281 2.988281 4.15625 4.9375 7.390625 4.9375h21.28125v136c-.027344 22.082031-17.921875 39.972656-40 40h-40v-112h21.28125c3.234375 0 6.148437-1.949219 7.386719-4.9375 1.238281-2.988282.554687-6.429688-1.734376-8.71875l-45.277343-45.277344c-3.125-3.125-8.1875-3.125-11.3125 0l-45.28125 45.277344c-2.285157 2.289062-2.96875 5.730468-1.734375 8.71875 1.238281 2.988281 4.15625 4.9375 7.390625 4.9375h21.28125v112h-40c-22.082031-.027344-39.972657-17.917969-40-40v-136h21.28125c3.234375 0 6.148437-1.949219 7.386719-4.9375 1.238281-2.988282.554687-6.429688-1.734376-8.71875l-45.277343-45.277344c-3.125-3.125-8.1875-3.125-11.3125 0l-45.28125 45.277344c-2.285157 2.289062-2.96875 5.730468-1.734375 8.71875 1.238281 2.988281 4.15625 4.9375 7.390625 4.9375h21.28125v136c.058593 48.578125 39.421875 87.945312 88 88h40v54.839844c-14.105469-3.59375-23.980469-16.285157-24-30.839844 0-3.441406-2.203125-6.5-5.472657-7.589844-3.265624-1.085938-6.863281.035156-8.929687 2.789062-6.277344 8.285157-9.652344 18.40625-9.597656 28.800782.070312 20.5 13.136719 38.695312 32.535156 45.3125 1.410156 10.539062 6.980469 20.074218 15.464844 26.480468v64.207032c0 4.417968 3.582031 8 8 8h32c4.417969 0 8-3.582032 8-8v-64.207032c8.484375-6.40625 14.050781-15.941406 15.464843-26.480468 19.398438-6.617188 32.464844-24.8125 32.535157-45.3125.054687-10.394532-3.320313-20.515625-9.601563-28.800782-2.066406-2.753906-5.660156-3.875-8.929687-2.789062-3.265625 1.089844-5.46875 4.148438-5.46875 7.589844-.019531 14.554687-9.898438 27.246094-24 30.839844v-54.839844h40c48.578125-.054688 87.941406-39.421875 88-88v-136h21.28125c3.234375 0 6.148437-1.949219 7.386719-4.9375 1.238281-2.988282.554687-6.429688-1.734376-8.71875zm-234.820312 288.359375c5.246094 7.796875 12.671875 13.875 21.351562 17.480469-1.527343 2.660156-2.738281 5.488281-3.609374 8.425781-10.027344-4.949219-16.753907-14.765625-17.742188-25.90625zm63.886719 125.296875h-16v-48.800782c5.277343 1.078126 10.71875 1.078126 16 0zm-8-64c-13.253907 0-24-10.746094-24-24s10.746093-24 24-24c13.253906 0 24 10.746094 24 24s-10.746094 24-24 24zm55.886719-61.296875c-.988282 11.140625-7.714844 20.957031-17.742188 25.90625-.875-2.9375-2.085938-5.765625-3.609375-8.425781 8.675781-3.605469 16.101563-9.683594 21.351563-17.480469zm88.113281-290.703125c-4.417969 0-8 3.582031-8 8v144c-.042969 39.746094-32.253907 71.957031-72 72h-48c-4.417969 0-8 3.582031-8 8v56.800781c-5.28125-1.078125-10.722657-1.078125-16 0v-56.800781c0-4.417969-3.582031-8-8-8h-48c-39.746094-.042969-71.957031-32.253906-72-72v-144c0-4.417969-3.582031-8-8-8h-9.96875l25.96875-25.96875 25.96875 25.96875h-9.96875c-4.417969 0-8 3.582031-8 8v144c.035156 30.914062 25.085937 55.964844 56 56h48c4.417969 0 8-3.582032 8-8v-128c0-4.417969-3.582031-8-8-8h-9.96875l25.96875-25.96875 25.96875 25.96875h-9.96875c-4.417969 0-8 3.582031-8 8v128c0 4.417968 3.582031 8 8 8h48c30.914062-.035156 55.964843-25.085938 56-56v-144c0-4.417969-3.582031-8-8-8h-9.96875l25.96875-25.96875 25.96875 25.96875zm0 0"/></svg>