<svg height="483pt" viewBox="-1 0 483 483.104" width="483pt" xmlns="http://www.w3.org/2000/svg"><path d="m266.691406 179.519531-13.367187-16.007812-13.320313 15.992187-13.320312-16.007812-13.320313 16-7.160156-8.617188-12.304687 10.242188 19.464843 23.382812 13.320313-16 13.304687 16 13.351563-16.015625 13.351562 15.992188 19.503906-23.351563-12.289062-10.257812zm0 0"/><path d="m240.050781 112c0 26.507812 21.492188 48 48 48 26.511719 0 48-21.492188 48-48s-21.488281-48-48-48c-26.496093.027344-47.972656 21.5-48 48zm80 0c0 17.671875-14.324219 32-32 32-17.671875 0-32-14.328125-32-32s14.328125-32 32-32c17.675781 0 32 14.328125 32 32zm0 0"/><path d="m264.050781 112c0 13.253906 10.746094 24 24 24 13.257813 0 24-10.746094 24-24s-10.742187-24-24-24c-13.253906 0-24 10.746094-24 24zm32 0c0 4.417969-3.582031 8-8 8s-8-3.582031-8-8 3.582031-8 8-8 8 3.582031 8 8zm0 0"/><path d="m432.050781 0c-26.507812 0-48 21.492188-48 48s21.492188 48 48 48c26.511719 0 48-21.492188 48-48-.023437-26.5-21.5-47.9726562-48-48zm0 80c-17.671875 0-32-14.328125-32-32s14.328125-32 32-32c17.675781 0 32 14.328125 32 32s-14.324219 32-32 32zm0 0"/><path d="m432.050781 24c-13.253906 0-24 10.746094-24 24s10.746094 24 24 24c13.257813 0 24-10.746094 24-24s-10.742187-24-24-24zm0 32c-4.417969 0-8-3.582031-8-8s3.582031-8 8-8 8 3.582031 8 8-3.582031 8-8 8zm0 0"/><path d="m96.050781 80c0-26.507812-21.488281-48-48-48-26.507812 0-47.9999998 21.492188-47.9999998 48s21.4921878 48 47.9999998 48c26.5-.027344 47.976563-21.5 48-48zm-80 0c0-17.671875 14.328125-32 32-32 17.675781 0 32 14.328125 32 32s-14.324219 32-32 32c-17.671875 0-32-14.328125-32-32zm0 0"/><path d="m72.050781 80c0-13.253906-10.742187-24-24-24-13.253906 0-24 10.746094-24 24s10.746094 24 24 24c13.257813 0 24-10.746094 24-24zm-32 0c0-4.417969 3.582031-8 8-8s8 3.582031 8 8-3.582031 8-8 8-8-3.582031-8-8zm0 0"/><path d="m416.050781 208h-81.472656c17.617187-25.886719 26.539063-56.707031 25.472656-88 0-66.273438-53.726562-120-120-120-66.273437 0-120 53.726562-120 120-1.070312 31.292969 7.847657 62.113281 25.457031 88h-81.457031c-13.253906 0-24 10.746094-24 24v16c0 13.253906 10.746094 24 24 24h48v102.398438l-27.472656 64.089843c-4.863281 11.351563-2.765625 24.492188 5.402344 33.761719 8.164062 9.265625 20.933593 13.007812 32.808593 9.613281l112.863282-32.261719c2.875-.824218 5.925781-.824218 8.800781 0l112.863281 32.246094c2.898438.832032 5.898438 1.253906 8.910156 1.257813 10.746094-.035157 20.753907-5.460938 26.648438-14.441407 5.894531-8.980468 6.890625-20.320312 2.648438-30.191406l-27.472657-64.074218v-102.398438h48c13.257813 0 24-10.746094 24-24v-16c0-13.253906-10.742187-24-24-24zm-72-88c0 34.742188-11.246093 78.574219-42.832031 97.398438-12.269531 7.320312-32.925781 7.015624-51.132812 6.707031-3.457032-.058594-6.832032-.105469-10.035157-.105469-3.199219 0-6.398437.046875-9.808593.097656-1.957032 0-3.949219.054688-5.957032.070313h-.058594c-16.75.160156-34.558593-.296875-45.597656-6.929688-28.449218-17.078125-40.257812-54.621093-42.21875-87.316406l1.1875.261719c4.753906 1.3125 9.652344 2.058594 14.582032 2.222656 1.972656.007812 3.941406-.175781 5.878906-.542969 6.167968-1.570312 11.941406-4.394531 16.96875-8.296875 2.988281-2.207031 6.207031-4.082031 9.601562-5.597656 3.292969-1.039062 6.6875-1.714844 10.128906-2.015625 6.554688-.453125 12.949219-2.210937 18.8125-5.175781 7.703126-4.972656 14.449219-11.285156 19.929688-18.632813 2.722656-3.414062 5.660156-6.648437 8.800781-9.679687 3.515625-3.089844 7.207031-5.972656 11.054688-8.640625 7.589843-4.785157 14.203125-10.96875 19.480469-18.222657 5.25-9.425781 8.261718-19.929687 8.800781-30.707031v-.207031c37.882812 16.558594 62.382812 53.964844 62.414062 95.3125zm-108.421875 121.230469c-.417968.277343-.800781.597656-1.152344.953125-.359374.351562-.675781.742187-.953124 1.160156-.316407.449219-.582032.929688-.800782 1.433594-.09375.246094-.285156.4375-.367187.703125-4.320313 13.457031-10.15625 26.378906-17.390625 38.519531-8.378906 16.289062-19.875 30.773438-33.832032 42.632812 3.289063-18.027343 10.085938-35.234374 20-50.648437 7.183594-12.988281 15.960938-25.027344 26.121094-35.847656l3.199219-.039063c2.734375-.042968 5.335937-.058594 7.941406-.066406-.214843.046875-.4375 0-.65625.066406-.242187.109375-.480469.238282-.710937.375-.492188.203125-.960938.460938-1.398438.757813zm12.085938 4.25c-.078125-.265625-.269532-.457031-.367188-.703125-.214844-.503906-.484375-.984375-.800781-1.433594-.277344-.421875-.59375-.8125-.949219-1.167969-.746094-.734375-1.625-1.3125-2.59375-1.703125-.226562-.136718-.460937-.265625-.703125-.375-.214843-.046875-.429687-.078125-.648437-.097656 2.6875 0 5.359375 0 8.175781.070312h2.984375c10.164062 10.855469 18.945312 22.921876 26.152344 35.929688 9.910156 15.40625 16.707031 32.609375 20 50.632812-13.960938-11.859374-25.460938-26.34375-33.839844-42.632812-7.238281-12.140625-13.078125-25.0625-17.410156-38.519531zm-7.664063-229.480469c8.824219.035156 17.609375 1.195312 26.136719 3.457031-.160156 1.207031-.367188 2.34375-.511719 3.574219-.347656 8.375-2.53125 16.566406-6.398437 24-4.253906 5.488281-9.449219 10.175781-15.34375 13.839844-4.351563 3.023437-8.523438 6.300781-12.488282 9.808594-3.660156 3.503906-7.085937 7.246093-10.25 11.199218-4.300781 5.878906-9.59375 10.960938-15.640624 15.023438-4.0625 1.851562-8.429688 2.9375-12.886719 3.203125-4.695313.429687-9.324219 1.417969-13.785157 2.941406-4.527343 1.921875-8.824218 4.351563-12.796874 7.25-3.296876 2.597656-7.039063 4.574219-11.042969 5.839844-4.640625.40625-9.320313-.113281-13.757813-1.535157-1.601562-.378906-3.199218-.730468-4.875-1.058593 3.429688-54.75 48.78125-97.433594 103.640625-97.542969zm184 232c0 4.417969-3.582031 8-8 8h-56c-4.417969 0-8 3.582031-8 8v112c0 1.082031.21875 2.15625.648438 3.152344l28.121093 65.601562c2.433594 5.675782 1.382813 12.25-2.699218 16.882813-4.085938 4.636719-10.472656 6.503906-16.414063 4.804687l-112.855469-32.25c-5.75-1.636718-11.847656-1.636718-17.597656 0l-112.859375 32.25c-5.941406 1.71875-12.34375-.144531-16.4375-4.785156-4.09375-4.636719-5.148437-11.21875-2.703125-16.902344l28.117188-65.601562c.441406-.992188.671875-2.066406.679687-3.152344v-112c0-4.417969-3.582031-8-8-8h-56c-4.417969 0-8-3.582031-8-8v-16c0-4.417969 3.582031-8 8-8h96.585938c3.070312 2.554688 6.324219 4.882812 9.734375 6.960938 11.066406 5.789062 23.355468 8.839843 35.839844 8.902343-7.007813 8.898438-13.34375 18.300781-18.957032 28.136719-12.3125 21.335938-25.296875 51.40625-21.378906 65.9375.820312 3.542969 3.050781 6.601562 6.175781 8.460938 1.867188 1.070312 3.984375 1.621093 6.136719 1.601562 19.503906 0 45.199219-42.632812 50.601562-52 4.125-7.054688 7.886719-14.316406 11.261719-21.761719 3.359375 7.441407 7.097657 14.707031 11.203125 21.761719 5.414063 9.375 31.109375 52 50.613282 52 2.152343.019531 4.269531-.535156 6.136718-1.601562 3.121094-1.855469 5.351563-4.90625 6.175782-8.445313 3.921874-14.527344-9.0625-44.601563-21.375-65.9375-5.617188-9.804687-11.9375-19.1875-18.914063-28.078125 12.363281-.070312 24.53125-3.089844 35.496094-8.800781 3.527343-2.121094 6.890625-4.507813 10.058593-7.136719h96.605469c4.417969 0 8 3.582031 8 8zm0 0"/></svg>